<mxfile host="Electron" agent="Mozilla/5.0 (Windows NT 10.0; Win64; x64) AppleWebKit/537.36 (KHTML, like Gecko) draw.io/26.0.15 Chrome/132.0.6834.196 Electron/34.2.0 Safari/537.36" version="26.0.15">
  <diagram id="C5RBs43oDa-KdzZeNtuy" name="Page-1">
    <mxGraphModel dx="1100" dy="1847" grid="1" gridSize="10" guides="1" tooltips="1" connect="1" arrows="1" fold="1" page="1" pageScale="1" pageWidth="827" pageHeight="1169" math="0" shadow="0">
      <root>
        <mxCell id="WIyWlLk6GJQsqaUBKTNV-0" />
        <mxCell id="WIyWlLk6GJQsqaUBKTNV-1" parent="WIyWlLk6GJQsqaUBKTNV-0" />
        <mxCell id="3NUll0_dnvoNuE_mM9y--0" value="" style="shape=image;verticalLabelPosition=bottom;labelBackgroundColor=default;verticalAlign=top;aspect=fixed;imageAspect=0;image=data:image/png,iVBORw0KGgoAAAANSUhEUgAAA08AAAJQCAMAAABhF6/SAAAAAXNSR0IArs4c6QAAAARnQU1BAACxjwv8YQUAAAMAUExURf////j4+O/v7/Hx8fDw8Pf39/b29vX19fn5+fT09Pr6+v7+/vPz8/v7+/Ly8vz8/P39/a2trUxMTEhISERERJiYmIaGhj8/P0VFRaWlpXt7e7GxsXBwcEBAQL6+vmVlZUFBQcrKyltbW0JCQkNDQ1FRUdbW1ubm5lNTU1dXV+Hh4dvb215eXurq6s/Pz2dnZ8LCwnFxcbS0tHx8fKenp4iIiJmZmZOTk42NjT4+Pp+fn39/f3R0dEdHR7m5uWlpaUpKSsXFxV9fX05OTtDQ0FZWVlRUVNzc3ODg4E9PT9TU1GNjY8fHx21tbbq6und3d6ysrIKCgo6OjpKSkpubm4WFhaampnh4eElJScDAwE1NTczMzFxcXAAAAC4uLjw8PICAgDo6OqGhoa6urjs7O11dXeXl5UtLS9/f39ra2unp6b+/v2pqarCwsHV1daOjo5SUlIeHh5qamqmpqba2tmFhYc7OzkZGRtLS0u7u7mZmZre3t6ioqImJiYyMjJaWlqKionJycr29vSAgIAYGBsbGxuzs7O3t7SkpKX19fW5ubhoaGiUlJSQkJCcnJwQEBOjo6MjIyAEBAevr63Z2dsvLy29vbygoKN7e3hISEtjY2NPT02traxgYGGhoaBMTEzIyMs3NzePj45ycnLOzs6CgoJ2dncTExIGBgaqqqoqKiru7u8nJyZ6enqSkpLKysn5+fnp6eufn59nZ2RsbGzMzMx0dHWJiYnNzc+Li4nl5eTc3N4SEhAsLC2BgYMHBwVJSUisrKwcHB4uLiw8PDx8fH6urqzAwMNfX1xUVFeTk5CoqKiMjIyEhIR4eHsPDw7W1tSwsLNHR0ZGRkRkZGd3d3by8vBcXF7i4uNXV1YODgyIiIhQUFDExMS0tLa+vrzk5OZWVlRwcHGRkZI+Pj1paWjU1NZeXlzQ0NFVVVTY2NlBQUD09PVlZWRAQEA4ODi8vL1hYWDg4OGxsbAkJCZCQkAUFBRYWFgwMDCYmJhEREQMDAwoKCg0NDQgICAICAmWatigAAAAJcEhZcwAAFxEAABcRAcom8z8AAJ9fSURBVHhe7Z0LIFRp+8CfwVzMGDOKIpV0oYgk3XSRbqQSkZKmxCa37iWKLnZRbbWslLAVFQldqC3VprbdsrqQlqjV/X7Z7bK27dvd//7PmXNM6GBGzsyYfX/ft/M+M2aOmZzfvO95znueFxAIBALRymGoqatrMIGlpq6hwQA21qhzQBNvuDwtDazhixttgVAbb4QC7CENLSFf3PC4GtirNYGDN2xiWyxgNrxJoiE3ySc2SWxZi9wyjy/eJLFlNnCITX68ZXWqN6vN52lrC8hPhkDIH502bXV19aBde31dXQPogDX6htCxk75u284Moy76um2M1bt20+/ew8S0Z3f97r3MzNtgTW8LS+x53ftoWXXX1+/el2vdBWv6gU0nrOkPA9pjzUAYNBjbpC0MwTepA0OxTQ4bzrfDmhH2miO76HcfNdpiDLatsQ6O47Cmq6lTW2yT49Um6GKvnsh07oY1k3gu+CZdwRbf5GRwwxpdd5iCb9IDpuKNNW8itslpnszx2Cane6nN6G1OfjIEQv4MEc3sNGsgeM+eNWuWDwzFG1+e3WezZg12ZszBmm4TNHpiTVsnv7lYM84/oBv2jDGBXtjtrJHaQdhjs4I58/BmPizAX+0KC/FmMizCH1wMU/F7S2Ai1gxeyl+GPdjFSqsX1uiHWIzCmjYB/suxZ/T0Cx2MNTPC7LHbWStYK/FXdxSG400/WIxvJAJW4c1qGII3a2At3hgKV2BPaR/J6oo1usZqn38RRX4yBEL+DBFFaoWxQDM6LCyMCVp4wwDtGKzhgDrWqHF5GnjDF+KNhkCghv1IXcjFbsPUeRz8iVo8hrgBJv5qTWDhDRvYeMOSbBJr1CSbFDd1Nqkh5GO32CbFW9YmtwxMvKm/ydpvlkO82ZpN8vqu8yI+GM+gx3QlpsccbeJ9IlSK9SJLMlINHL20iEC4QfTlxk3KymaRyIJ4nwiVwvsr8vtcRYg1ZxGBsOOmuGilJWbw1/HE+0SoFA7O6mSkGmxZl0AEwq3bEolIKVkuQj6pIhqOHDJSDfpstycC4dbNSUSklOgin1QSt83JZKQapHwzgQiQTwgF0E9kTEaqwY6dZL4c+YRQAEO+Jo83VIR+u1KJoHGf0mwGLN69J4a8JzPmiwe473Z3X72SST5AEjgkUrDXm0Heawzkk2rSaP+Umu6+2DaDT94T47UvEm+0IjLFd6XEcsBiYvfJ0DOMFgf18d/vwiND4GSt3p3NA/OcA1oHD/FDDluRj0tDbl5Nfq9Rn5iLjyyyXHs0S/I7P4YX3/APbfpOcP72mGXO8XzyARK1NSG8EyfJjH2jIJ9Uk1Pfkd/nVESf3ranYMQZU/IuTtRZd7xhZnoCxEjzRSxGI+X7c3gbNusHy5r8h0adE5p+s0+QEaZC/uwf0wBYM3bzJ+Tw8jbnkI9Lg39qzfmnxsd7w785D4kXPrMAqD3fj1frTsgpHi6UUHyHUzdrU5gEaj9tAYF9IACXfKyGvfrq2KsaEVUM8kk1KUrQJCMqtlxMA50f+tXaaeKHLSAj0PTOE+9txB5HwiX2SLb49gO7f7qIW7ng0je4RfjOGT1Q3DGSSnKFp/dhTc1eu3on1guqHTbDY+Gsvfgt9l/9PZeKvpeziaApn64YAkz7scjC3qYYTEsyIlfFAcQW29hDkbV95KoEYNpdTY4uDdfgDM/iQmjBvAI+lPomZ16r6ZHCfp4qbkM7H7AEfnFJqtsqR/A/7wQLlnOKPEKb+qpBPqkmgcnk+IgK3tQLsVC4c5mwLPJAGZjsCbqWEd3DrXxQMpjOMwaX62vi1fcUCP1dzBlBw+P0bDAb8jq7rIxSj7eqMAyEwKUFVpPFo0OAnMOXsA4q2m3upjDgVK4MD+RFXF3DAkFI+QET7PdUWnUedgNYXiUuYeKnx988DbDmvICd5cyAwQd45SXY3oftuSEAxtZB57CmIXb8Il0+wvnL/Y561/epDcw+UDU8efMcnzFzc5mTjX2qOo/eeHpvz3GBWv1ueYVlfZMAU2ermw1OuN3eC/b+0v/anaGkKTGETyvbGd/tZMXpd33IhosjtIbfGwBr5rL0hoY2Ncsd+aSaDLpXSkYU8A5fjgy4f6Wz0wPL48tjDb7d2sfHYlTHAW0faodsPATOl9P9mHNGMMoeuWmP2bXYu6oEzE5Hum/va7rD1WTsPkiqGrdgfHtip37s3PWqBniEd7inBuWPvWbMYN59kqPGPX/Oa9Hy0ZB1PLV82z5ORU5q245EF9XxkiN4G0PY2M80ob1LUsoBDajA9twuVrD/uneveeLnUCJtvjzrXod56920IrtmWU+7Bk+nQlK3As+u5XuGPYYe66GykxXs7YKNQqvi4IC+ml8mZD3LhJjNJWA7nRz9Ej7F6mK97LFRHKcfo6Dyik708wFg8OLxyjpdNiXIJ9Wk0XwEr8PnawyGLhX07+g5YLCJ2azz2G6k7wb27fN4vb2hqApTMaIng//wGtztpgYrTsCa9uoxXZbAmqKwsS8B7htBYFsb8ZbuRtr/mqNxzcT1S03tta6ei/S1g4ZVgkn3MoDpwfkvsTHkw0VlfRZ33jKdOPzx+s0tabUagO0LTeg0abU5tud2x97o/VGMpHUhdUeYdZE2Xz78yhILbKQbkRJSahIveDkInJZHLpxoWVoYzR3jBqXdPWF3ewCzC8bgox8DATYG3c6Dxa0JsLcHOeAjfPLciN1d/Cx69FF/7JMsyu05AMLXXT1APKUxkE+qSaP5cmy8lxQoBIvxD5JDA9iFc0uwIVubNWDVpZC/bB/4v8JeOqUng/PaDa71UhMETwKvmZ5l4+yBq3Pw9AyAPh0gba6BeEt3neGF7vmBMOlLhvlDn9DkMm6FfilkzsSOs6ZM73wLO+Y5Njl7RFapkwPhCku/Tf/bWGs7GOufXrXFjpzEe677s2inN9gAsWFcZ40mgiZ8irwi7uTc2vKxz8ToOghM2lrtnsvD7jB7uUGyfgYs7oT5NDMEcpZrZs9wCJjrC9GYTz49/cSvB/UvO2C32ZcLsI2MYYdUYd8MbZbEj3UHm2ERJ5s+B4F8Uk06iMjjd0o6vMJHNxoPsV2HoZk0dyl2GD59DWR0NxceuwGJM7Fd90ZP4D5dCAPHaPDeHgbuvnYuGcAcb6B+ojfWVxwGv+lLxBvSc4bMr9p4wdQj/Nzl7gBanKX6JrBnUyVm9IaEHz0Alq1KHlwBYEpm5zO/OIN944NPJxborm97mNxzF45hO70pJJ5BTVgReXzTuE+Mvb9fw3MmlZdGJgyw1x68lml1Vsfh5v3Ux9nqn01iBK27DTZnR2uHHa3OHzrTbOEr/+IL1YzQb+Zx9j/D3jIGt/KP01j/xjxzOjd2ogF4XR6unt071uFRO8aqJ2Z2j5K5oftJ8ahBPqkmEe8auV5Do/fPcdj+zRvwS7VxtYbxqxwBJF44x7m9LSpseQo/92y6KTw+meF1dJJmv9mOGuOWcZ2MJnt4BiZ+bhvYdbkaa9xIVmiVG97hsKYu5sTsWsbTnPGFOf/wvQUFC3kFz8K1cnXXBsaOj2SPHVyatjwl+tjVPZ3dyfSI2aa12C130TpTjXV6kT/uj2H2xPbcrQY85ysFjR2dVEZio0Scxn3yOzRrfh4ehD971I5TOmqio0f7u8LwJ8/280Pa9M1fMPgxmI3okwcP7kwZ0CbIcsT4HLtl+ee7PzZdr5sl3kBM+qzepVh3VhbcX+82F0LeDSnZPxoidV3TvIdNsL/TIdD3s2rxExsA+aSaRAfUO8Vfm7gZ3R5rYK324arBJaDTZZEWBC33zl3cxSBh3IYwGDp3Hji+nLt7Yj+nE22LQ8YaWSS+7NLtRV+zw7puD7p0Dnh4OsC62ylckACjqabC8mIonTHLVjPWaNeIKIhfccYLRhs9eDycBwE9R+2/v8XUoeeusTWdD/cA1llBzNQREzKm7Ss7Pmwp+ON7rkA4oEtO/WR8bd7+LOP8PRaRUSRgkTKKYeKp/RihENOXrQGchjLgufjTEh4VxtdL6WUYkgElyCfVxCxDmrP5oEa1D/PwXZGhzpOcF+JFZGC3NnEQDbxG0vAQjSfxGOLzuabEhmOInbHWPvlhqxLEe24T2P2kkPl7vj+R09olxKY2dmIP+aSi9N/ZgtfnCkcur168N04qQ2lCMfPLNV1ODK/3BaJRZ5rWRyCfVJOWnV9u/sD7bpYidVLQ/HKulkCrcX/qg3xSTVp6fnlT89boZv8w8nou+Y73ZAb5pJocbjRf3vpgh5H9BPIJoQCqb4aSkWpgrEPup8gnhALQipVm1nbrAV2fi1AkASX4CSbVIfh6o/k9dsbBg9n4N0iYznnikTrETWYDRA3cfVBPIzHno8sYBUvEkz0sSm4TNZ1jKvZQlFDiLNUjDyL5UatziehjkE+qyZQ/G7mesBWS0rhPnJD2gyvxk1wWPccQj0hgMAAyvBlQMmDejqF6moXP+pM/kCBY44M3Wge2zxAXWbv7TQTFxcasoWfJs2jC6s0NTt5HPqkm/7l6LJ30xVeECPqdrpuK5Nng56KFAL12QzTWZ2s/H4Q/iv1H2CG+JWY6OVz6E5/7YDZCFI414qt4yR/huRDegid4gz9/5Qsn/FEqkE+qiarVY3EbS04/b8inYaOwIV1YavbEYzwIi3MOhNhs8wQdNXA666rBNS/lxBw9FA35ISzm6weQHBUP6padQxggSIyL02A6EbmbgJQXPZggyHr4kw3wAo0jAwTArYwqZfHMozyxAZ7vMwFYeAU5CaFAv/OEEurZUcgn1eSEiuXLuUxytmwDPvGWT2eDeb+lQbu6gqNeVr9xsTmX1g+6swVGn51ornbsjobD2Yllmsc+MxX0GqCRci5efeuDhG7zIG5f4oqstDdG4m2Uui3+vgCKBp3/wQPyewx3GVYKhnqpG1I9e1V2GMkEl2cQOGeB1azR4Nm+3eFdk8WvqQ/ySTVZPbPBIUmrxHM3mQJo2CcO4/h6gC3L4NqGEJejng539oLLI55AfzGAy6546K4HsFc3TdB1/gHsqya+OjZs9hRwmV2YFghbCZ9GrzJdd5rZeUHcdx7geApCNi6FIV0t/EyHz4MHg8swn4Tmi9XNH60Bz5NRsGi6+DX1QT6pJoya9fxuL27V7CUzA0Y/NF5vGfOJZ9bJA+DUCmbfvsVBGfFJbQ/C0qMCri7m0cFH8dBtNYBBmzThyPfP8SnlDGv79qcgd9Tmx1zepD7ibYw+BYf+F7RPoxjzCWIMXS5aQ8ijk0sBQjrv6+6A+cSF+BKdWWsgqLsTXBshfk19kE+qSekBckfcKGrdkGnKJvJ7+PETmF29BnBjBf8YfoWteuEwQ1j6iMft7g6w51k0dH+M+1TE631/uTeAxdA1Gq9dga/R/94A3uEd4k2EToG8z589AKvvwsGkT5T/rD3ASUy54rl0UsC8tmWgcxIqh86zmLsAPLsnQ3Ub8Wvqg3xSTVy/J9erefWtQXjrJfgd6VMT5594mrPba3HHP8tjb30u0Htn4LfEv/RkuDDzoqZQ/4am0OZiEffkKiFv8YtERptrnttsGROupAq6nNCekA1r52u/7Yp35rwJx7lg94uDsESULlh9lZu3MVMzM4wxYuCMt4KckwnCBVe56VUO0c/c+EufeAmndKE8YY58Uk3W1+TLr74i2taJ7xEyTdlEvTCWy6Oqg1DWptP60z0tWTsuPVrMD3+/L63f1T3Q7snq6BNXK6IerchlDr04PO6ZkWmfbb5F+sPCT3efYN11z6KMxLbD8PO3Mf11oyBhITe6w7fBiQlHZ6xp8zpp8vx5EUkLZx4a9OJU2omZGZazx7g/HTPabWNO0f07pOB1QT6pJpJ8+a2rsl1woFys+ZL8GIuXiS9jb7B/YjBZHAC2SaAWgw/CvDIBcFkMIYPJAU6AGtZyuUymkMdg8fksJk+gzYCYQpZaLkcQ46AGQhZT3D8x2eIuR8hkYveLzDmBgQJurgMTBHmxnNwwfCPgZ87WMOVzWBzsSah/+g8xVRRHBCrik1BAnqZt6PhJSUA+qSbpL8iKDSriU8m5NCJAPiEUgIBLfp+riE/j/8SnDWEgnxAKIHtgIBGoiE9ofUKEIvH+i9wRVcSn4HfIJ4TikOTLVcQnOynX11A0yCfVRNXy5Qc6lhEB8gmhACapWL5cQnN9Ymd3Jmc01oaZahwXUOtxNc+Emnsx8xpdoKABkE+qicEo4tptVfEp8zC+jABGc30KWzaXorQt8+CbOeLrekn89N/WnKYNfX+OjGQB+aTiqIhPx/7+1Hz5jZ5UVwCabrpPRmJ4IzvW+KShu4iMZAH5pJp4upLLqqiIT5+YL+c7mEx5zQZWpXEYAMsxviyB/Ffxq3oL2okWvHhzrPdiJpUZbWFEl2kJ0hx5vDPIJ0QNh0TkjqgiPgW/+5T8XtgDm86zp0Pa1iWZz3Nh4dH+Q55dI35SdCEFcmfsAONdeyBtytJ5247zJszay3N/FAPPkU+IGlQuX/4p62vwq/vwhR3OCL2GaDtsKofsWws4bp2IH+E+8Q6/Bs03SwT9XAWC11vBYkQ1TNgWi3xCfEDV8uW+3o5E0ByfAqcPBHDrxYaY4oObK6BUPxLOnyR+VHQhGMB7BjDb+4Y9WQmwYSjE9BgIXjMDkU+ID6B8eS1MH2FqXHvNdxgSbnFyJYzWL4cld8gf3dqKDY57A6fTvJgrmQAT50P887tg+coCnn9UqE8KkE+qiW9vssSpivi0N5jM/zfHJ86xk6bQrg0snM3TuLgURrfPAptn+A/MKvzfTAbY1wb8Ny/hd+nJgfF2oD63HWTeLILpU8Qvlg3kk4pT1yc/lwMBZOBLntCpRei5BuueAuSFhxNTbAuXWMeKg1oIB1WA8ak6J0DVy5dkZvOSwg0a2WaTSHw69ncxETQrH2HSvpPrjBeWFZfvZ144XWb7y5S0id/i6+VG7tpxHBtHFm8bs7j9fXX7C6NWDRtVKFz13m7gtt1RV8dSVIltCuSTarKybxEvDj/kqOuTVvo/I8Xrorn+T7yCbl0m3MQLo9ZHQDwxbP1vN/Azn9yuv66UnMnRJM+RChd6wsGbJcQdAk7yphGmYDJ4oAX5QH20peg4JT59Yr7ctDzUMV+Lb1wcVlnJjDEPZPgl4kvqatoX4xWWeZadLRId+eCQleefxgZ2kHFMXqC6fxrlFbiNg3xSTfaJKsOurMN28HrjvdLLv+ILQpt0EmEH3/VXSeMedcEb7FHyB3gJY17xYuLOvJ038b4t6+rveM8m3te0c0bjDYHTC2vsVkj+CIC5rRewz6UTxpHVKDHwTeP/sfb7ffj9+OLQAB8vDS3xSUHr58oM8kml4LM1wnA0togKYnr93w8RGlV1fQrZMKsXBziGXX9ZChA44aA/lBVUdl4Ta7bEEOt0Zj82HOAAReVlApNyNQjLLi/QAnP9GYFiQ+Zt3XYIgJ0+7ksH4CQVr0wE3rmj5zm5ExIyPWOznSCp21LIMlZnmRR7ivsvrQv3WW4LxMpohJQYg5pVadzdSD7Dq4ChHukEHkdKNDQ6O/H8I/0gxrjAC3uSVVYYqGdYhvqQ7tTun5qqF6YkIJ9Uh5jihR3njGo7DWPURtHscXOviERdv91Vxyf7AXe/i4OkyUv+LIGiaxP26QbYHlkf8cTIdsurHICTy3YcfRTgN2sI+G6zEnZclLzcHUzm9qwUdxw2Limfm0L57nPbzWHPOMtVPTT5/Xelayx9P/70lIKzNyCpS4F579sMH73C8eJr7bUe6XYciAegucbQ8Jlh4YUR/UYd2QuTb6Vpj5sDmUcWmGqNm8ELOWorPFXReQX/0MTEXot4Dienuxs9qlkvRuJTxYMiIkA+IeSChd60r0Vf/XRzM87FP0VHzh7d/K/o87+f1fEpY6Dpxj7Mg7eDfl8Ke3dEhT/Kir9gAwdOmsGG8QBPrkFg1XH+fW8o7BYkXGyqrt8X+MFTiZd6nC/dWc3abb/4B3Pw9IA1G3PBeloexOgPAj48nQJJ+qdc8gHWjwiIER9xac3e+HlP8SF9uV1J8aitkKLPh7VPNAoG+8Phh5B0qwxgUm+e+hkfQc/5LDOuR6rmjtdC2DodGPoH8JdhSHwiV7tAPiHkw5JOonc73FdGlVbi5K3paBXgtlHUvvjqzLo+nYOh78qHsJb+XgHHO0yISohx7FIBOm38YOhIrH/Cjp/69YhesQ+cupUDf17U9LXA2TGfeKmHAcx9Vj6F/wDzCZJdHl/NBcNhThA4di+AoOsiyBvxLW6e+Yhti8U7v9bR3nt+aINnI+529bSPMwe7tzywf5VcPNgRTswAp6t5APNH8sJ62ILh5u4ZAM7WdnMEsMEINJ6n4xvAkPi0uitZXwb5hJADd78TrU2ue4GPxWbR/Xy4UPf4KWoVON17shuW/u4MGzZgD2gmdsJ9MoX5ywAenQeYmsI4dgMquxRzO/qo9+kLnD5k/xRuAyV/trWGBz/4Q/jEgIyjgTBvWBJYjLXFuo8ZERDQ9kR7XC2/KZs88Oezq47B+e2jMKF2T8NuYsDOjgdWXfyCXvjBpDmQfBbrn46fBo0ePsCv7HWntH9Ebv/TPOg4HtSxhwgkPn36/HL5gHxSCSZ/dbOijje3R5pp2lWz6+f3BNbzGbDsZqDggMiGf/7dNbMB/gG3MgU5d8y5989w4ORjdmIfa7CbYeF7paTo25WsUcfUOTtmaOD5Bf7Aai7js25cbj9RqXDOGU2Xzyt5FXeyGImdJguA3XaSIOSCoculCs7tAu4G/EyoMPfKCAYs+LpbEtvpQm+T4S6Q8jxMc/VQ3oRbBfHj2jAcNleowQ39soSqB9rn4x2f731TrTlxbjR/5BmO6YtqMh8o8QnVY0HIj73/Xqh31nS9KEG8ql49nyz2jUsF4zW8wC3btjgy+m0+qifQqToXOOTJnoDXowph4cO9q+YJofPROQt7tYt/2X3N8fadeecvDMKPghz7LCuD4bchYMa6B2pLLmxY8GII03RMD8vyOxMDIbXT+NwlryJyh42o1Btv2B+fy6CdeRUbxBW23/jSWZA588LEeNi6+YABtilOn9ntXNuOFnaduxRG6496/HKS4wlXl4XRQ+8sihjs69+zTWXFs7XkyTGJT6h+BEJuRB25TB5dSGjgeg2ekDjTwxOCEDvIKfLDdlAe8T8MTAJ/8dlei0AGUwgsRy4rTACCXPGqsthLxYdF2EsFPPCL50WzANRiBTzstdhG8AbbNJ/H03YkziNhj+G/i8fFbsMSOVgfY2cai2+C489iMLDNp2Hj0xhTjhb2vMAiAEa+Ji8Qez25JTESn95+Sc5HFG5dZ0ZESskw5FOrR63tP5FkKEEJ55cLekxnkqHUSHyysiXnOAn7HlmQYaWsRFX9i3xq7diK5n/kjBLWL88/1C9P3MPJgMQnPqfmpYdFO7/8WVm59/X3DU2vQrQSYp9sI+a41sbzhikRKI9P6tqaGs32aVUbcv1SB+/1J6YqLZPWR0jmNiJaJ51Fh8moFkI+uesqj0/NQeKTpH55x02p2DGgEkO8TURrRXD4uz1kWAub56pVL0ySL+/6K7mQLgJBB9r6VflkWIt+KlY/QrI+4chfyAuhEAg6iN6sT2GMqtU32votmV9BPiFoxe/vcWRUmyEq5pPXbfJiWeQTglbMRD3JqDaHRdlEoCI+sbTJyYnIJwStUPtkfFe11lOb0omcUIV8QtAKtU9cNpm4VRGf7v9D5suRTwhaofbJtgs5a1RFfJLky5FPCFqh9knl8uU7Ub4cIQ+ofVK1/N7aS+T3A/IJQSvUPqna+afKSLxeHgbyCUEr1D6p2voaGrl4LUAM5BOCVqh9Sg6PIYJbM4m2dWJT49P6JyFEgHxC0Aq1T+x4slua+T4tt9US6/azF/ExVtRMg0U+IWiF2ie9o5VEcEl05Nt79HFzM51b//H/RKRPzc6XR3uFKpbRJh+XkUYoL9Q+SfLl+053pRPdV6/JiBbmBJNz55udLz+w6fK9bxXJpvY1xW4RrQFqnyT1I2jmbntyXhPNTLpIfh5ZfRokmn6io+JYO3/TF/Vr5SCUGWqfJPk9mnlYM++WZvy9xIWXZPepWrQU8JpJCgLg9FfKXN8MUR9qn7y/Ig88aGaZKJSM6CXWnFxpSnafhpORgliGfGpVUPvk4Cwumkc7y0Sfsvyg9GxZ18zxHt4/KRTUP7UuqH3ScCTPf9KMvHzqs72Z+XLkE0ImqH1y25xMRvQiL58k+fLev5AXbkgJ8gkhE9Q+SfLlNCMvnyT58pSdzkQgJcgnhExQ+ySvfLm8fOq3K5UI9v0qXgxHapBPCJn4b/RPuXlkfu/uP25EICXIJ4RMUPt06jvy+5xm5OWTfyp5/mne7/2IQEqQTwiZoPapKEGTjOhFXj71vUyeN078v+dEICXIJ4RMUPsUmEyOj2hGbvmImvqwzCfbKMrhNgzyCSET1D4Nuief/VxePn1Y73P97wZEJB3IJ4RM/DfyEZJ8ORSIjpGRVCCfEDJB7ZOq5ctdZ40mo/hHO2U5o4t8QsgEtU8d5DTvW14+hRVJrsozEN2XYZEl5BNCJqh9inhnSUb0Ii+fJPWNACyWfyHDFAnkE0ImqH2KDpB57edmIS+f3v5M5iMwKn6YVUSGTYN8QsgEtU9mGeT5T5o5Lafrn+x+qslHAAj2icZKvUot8gkhE9Q+9d8ph/EeK0HbThSa9/Fq2C2PJF+Oo/ZUNJQMm6RBn7zc0uNS69cmDNxrCPGrxPkOh9vnrWPFwZBcvGkuyKfWBbVPcsmXW14e8vKPva/syLt08iFfjlO0S3RcyvFsQz5Zdy227DueBcw680jiu9tBmJtY3bBT/zsg/pmZdyCAJuWvU5MiMYJ8al1Q+ySXfHlgl++/+f6KaCF5l072D6tzPVfCTNFr6Y6hGvBJ8+UxgLz1WoIl1oCvhE+shs/j2a3l1tzZ+8eHKxfzFuB9FLmkGw72LADzAeJhJ7mSfgMgn1oX1D5J1ieklbgfRV+LjORxJTA7rO7QzGGY6LMJ0lSSbsAn5rJvVwogmVd8wVtLPXsCREeaY91etlevLdzYoDLxU9b8ZoU3Qv8KDj+4UxQfAsqztKEwMnSBudCpwNkU4sf0dOIWRoZxsdfHOifPixS/rD7Ip9YFtU/VN+WSJzD4QtQpjIxpxVgnnoxIoif+8MXxxmvOuOwzaXi8l/D+66H+AJGP1pqp99sliBk8CZzmF2RdXMu7/a2t+Bk+/4h94kdsz+e/3bWSNSEn48xEbe8vF42wvr1sdIcZAr+xbYr5BzdXwPpHEPnNjj4dxS+rD/KpdUHtk1aseESC7Q4cPn0IhEMfZQB5hw64fHIwVff4SYzhNNEv88+TZXCpGCJ6VgF3G8pHlPYWPYqD3FE+ADpvOHC6n3bKA4DxHcF0Wrr4CaRPYHnRHAYM48Brj7hDncxC1gVgLyiAQY/UYdJEAZh3swbf2cAf/ACoj+iQT60Lap8CSjSIoN34GTQysuu0Ob3JmA5Gbk0jPkbw9Vr5PRL19Asi0baxfacsvp1FhW0X0bsBrtQ+8TggOHD9qnpsmxyAzDscGOntODMLYMN8MB1V16fkq+awejlL68KeqKhS5oQqfKGFqIpFd8JgaAoDkrqVgMtnwG/f0Cxd5FPrgtqnKX+S1xNuFO16cpQ+Hr2hc+snf/6rpn45hU8AZQuCMaVEX/36joofL/8h+r+b1D6FWWM36b8lxM7F+qfwOwAjXdNuYh5NnA+544jx3oJ/8JJKpn5Jt8rg7jAuc2Y5gCYjrioa4O4hx5LZ6rAW658KuwyH87NA0OmA+EUfg3xqXVD7JMmXz9xo5lfUWsm9VrO+BsV4Twwj18TKY/LQPjsoSBm7U3ShO7VP0W89tJiZj9Ki9dtpgvO65MAuwWEP2ztovOzNLZtdjQ8y+QNFhjExZau9Qn4MAfeT5ppdq6xKPQLLLyXyoMta1uJbAbwTT9M4aZ8tjDm0Lkx918IGsiPIp9YFtU+SfPmtV0TbOllyhPwYbmNNiIASIXm4VZesbf92cRhI7ZPWofF3048dBJ7rMwNe2JjZC+zGlJXNXd6u63iTlVVT8WsxEydu7n14UputaosvuENIt2VmjiOutrXn739ygAURu7wHHL3GL3/TwYIXUbVVr1NJ5Gd9G7jMEfnUuqD26URNvvzWrVpnTVodC2p84jJlmFNOsmX7Dgtwo/ZJqCmINcFL6DLS2Ngwzp+vyeQB01+bIxBi4M/gCXh8LpcjBAEP+xe0COQBwxw7dBLf4zlq8GOYAH5qPCxW47DxVzVwGgr51Lqg9mn1TCciUBGfPHfLPumn0hAbgjU430heIJ9aF9Q+MbRJjVTEJ6MfyHrLsoJ8QsgEtU+lB6KJQEV8os7vSQHyCSET1D65fk8mxlTEJ6rzT1KBfELIBLVPkvXUVMQnSb0wWUE+IWSC2qcP+XLV8GnxsjwikBXkE0ImqH2aKoojAhXxSSho/KqIBkE+IWSC2qf0F+QqyCriU8k5ciKfrCCfEDJB7ZOAS36fq4hP4/+UbRk1CcgnhExQ+5Q9MJAIVMSnOvUjZAH5hJAJap+8/yJ3RBXxKfgd8gkhD6h9UrV8uR3KlyPkArVPqpYvP9CRKOogM8gnhExQ+zRJxfLlzQb5hJAJap8MRpkTgYr4lHnYnwhkBfmEkAlqnySoiE/H/kb5coQ8oPbJ09WPCFTEJ5QvR8gHap8OicgdscYnvwWn8Ct2NectzGp8Zd2YVf2FicEUq2boueLXrQZ2uPbh9cP7mpKRhM41FYkoEfoOJa9zpKLymBkZ1SDxKfgdyu8h5AG1Tx/ly7lObz6Pw3boDFfzxq8c53TtyYxZQnE1bEEJfst/OeZDnblKXy3sDZB3CJJ08KvIG8TnLJknqY8gH8DCR7LIE4nEp9rra8gE8gkhE9Q+UeTL+//+LADAaTF+oSGTehAoVmHfSKzhAbDEFTEJO4jFb8RTmA53xXz6UMuHF9QPb2r1ediz2PW7QCFZDZBl3B33SaIcW+w29my+9Q3xA5j42mSAI/HJ19uRCGQF+YSQCWqfPs6X832nbOxuAcmLLQAmDNfrjA3N1uyZ2jnqsfHiIeZeU9zUwW/48L3Y3/7GMg3j3QFgEuS7EnKdh+8tBGZqlo252oI94kLlh+fwR7vnsYoHHPTOivSJiZ3eKZSrYZ+ZE8a0NvA45NR5byxYRYYTzzV54OkRfJ4HoRUlC+IBYsszpsxOAPOKPQbicSLfJHJJHFgMz3FhOHaba86OmqwOIUt1dJiQ+tg5/e3KWj41G+QTQiaoffLtnUgEEp+4axKs/nzISFocDzr9SxfM2gMLt59KOZjzq9vuwT19H1xYA2vfOgYvA3A9xl5wL4uVEuI8CU70cdw6BypcHdPD43XbED4ti78x0I9x7qd9HQ5OOusQtqNtId/nfOry4+wVG9vN9+qwLS9xduHtWeLySsU/v158+pvz/HF6/rp6oNZhb9mQdanQY7X53P74jyunFpYsLKqOC6rKiR15xoG98Ds//3GGla8KwOXnZavHXA764NPeYDL/LyvVouFkpCCOIZ9aFdQ+Sajlkycs+ONwck5Y9AsvgInL2Q5nQwCKrtqDe3s12NAXIgPUU9pjPp0WJHaJZOhOjI2BoELtvrNgz2fpYAHtxol9OjStP55qm/AsFGCefgDWnUHZnIHDj4+HA7pY17e0u4lFFhg+8sWfK5x+GGDkMEZ5mMOILWA7Nh5CMNEMNYp0g/EfV3ZZz1GLHLayYk5/xokN2P2r/tHlHJP3BpCr7wbCaV3hQI1Px/7+sHiMTFSLDnIVSm/kU6uC2qeVHcnyirV8woZ4D/7paqsetRE7Ftn7LLDwpBP28gujYfHTeOjYFzjnfdfr4j7x83SdIevok5XA1dFx7QbMQZ+PzYdTz8U+7Tu7EdsQZHQyAXBpGwBDekP5mM4OjvGQPgYbxR1c7gReC8J1b+PP5UxbDeBxlGlhe3DGYbAbw4Bs3WyI9ln68i3+Y4Hvxc+yPZ4mmqeFMY5jhiWfNYfCxRNOGoDZXBuAdroffGp2vvyx6PftCkX0e2OVOBHKBrVPH8+H5dlYYTfrv17GNbmJHVIMfKiZdxL7SxdVhcLupzGwdipvxUDGwGEAU8bzypZ3FjIt7D7z3zqIOUAXYtiW7U9D/zPiLQ2Zc6gLNpaM6oR97c4bUQb9ToPlM2yDRUKfMYFY/zTNwfNpWF5bvD445tNCgPSx+S+HC1YcgqmvYiG1iyV7XCR/RUc8baGlYTqnu94brFfL1+47ETvcuhWYMNaJNysczNp6AJza8cGn5ub3NA9tvnVRoVwY1sxMCkIhUPt0qL5PvPyhu7nY/vXwDIu37Kl5YkcdXsn1EgEv490e5voqE7VRDwOfrE06vs6MtaJ9fMHnBhYPHOJeZr94W3h4c75Bery7EWvFE/ySKvacbo7T2xeywr/N4gmrL0VBxDOn+GWbfHzW8L0vhIDw8c0ot6ujl17tj6fuONN35OadWJm9KSdgRC+Lgs3HLQ/c3JN3ZW/A3LmB2JtJbRcb+TL1WZc9d604HdoXaldsj3P5tjxp8yGtovaHYkNTJtTqn5pZ38j6J3FHiUBICbVPH+XLhZ4p1Xgm2v+gBsT2O5c+HHgHxhxgCs4/DI/v3zWjMOW4afqIQeHPD+Z2MKo82HNB9I274YaQPmJ/5pk9Vh080vMCTxjhay3lTurjtKenXuCCp5l8zsKxWZD8vF2M2f0XdrGsiJdZwNXrmWXy8q3NpK34GSzO82krfXRAY/4Yd7eHxjBv7vxVKb5a68/YLhyLdzf+/Wxti8F+7uB2mjChTXVuZq/bjr1Hrhw60dFvedeK9PJa+b2KaumW96zPAdFdMkIgpIHap0bml+NnkdQYRFwXJqYdGWKw8ZNO5ENhjZwDFpf7rnPCSSg+0MIQzNXjiM/+kpvhET/48GRt8U/Fb0ZA/grxnfzp4Uz89JfEJ5743JfseIiwIzgEQmqkzUcogqKZQ5vnQcilc+JW4tPqrmR9GRlBPiFkg9onCYr0iW95bY3sZfwxOPbnloinHkl8au78cuQTQjaofbo9sv75XAXAYwq5lAPLphAygSGe7STxqbn5cuQTQjaofUL1IwiQTwjZoPbpo+s1WicSn95+2cC89CZAPiFkg9onVavHYmUbSwQygnxCyAa1T6pWv5zPaSRj3wjIJ4RsUPtUcIO8craFfdLMyWGTYSP4rzcBsNQbGkLebzYSn1a1aeS63kZAPiFkg9onIZ888dPCPjFP62sDkGsfUqPBgfxqf3A6lD1pFflQs5H41Nz65cgnhGxQ++QxruXrhYmXGBikyxbap+N3P94uPvuBN2EBcS1uRLCAU//ydZmR+ITy5Qj5QO1Ty+fLGSYFewKEMHA5w7x9H39Q89qTAVoFUUvXxE+wr9xrLQR2acEeM1AbNc5SUFbux1l2hqKmi6xIfGru+oTIJ4RsUPvU8vnykrmj3eZGgxvmU/djyVoLDCseLSkaPPhE1+QxT3JOnC0G915O6x8KNMbq2nP0foxUnzG3mRVUaiPxaesVlC9HyANqn4a0uE9RNuBxMx/ziQm9z0HQCkOrnikwdTpXAKuPakOv/lBSAYNuMWDqSIDCF8PhcEoL/GKJT163Gz1maxDkE0I2qH06LBIXcGjJ46fQTPeLhE8zFsHil8VxXmWwxYgLMHAYF5bdAJigs/8oA+bP4YKT7nCYtEM8d/zTkPjEUm/ex5Dep8Ces94oBXfan2veuQG6iUn57M2bwXn+c7E3udwvWRdrxqnFDcaalwzn2VhzH1yw2zcdwRZv1kM13pyDU3izGCbhTbgwBW9Wsk7jTVTYGOz2s+S0UVjTzTFpOdbMjffqgjVP2Z7432Ok4OAdrEmBA9jtm6nwGG+mQATeDIT1eLMAOuKNIec+3gRpP8Ru74TE9sCa9uZl07BmWG5pd6zpoZ7xAmu6civwN7sCMgf3ochVU/tk/NiCCFrMp/Ad/nFVabBwGAce7ocFukUAFjD1PubT3eWYTxEwcFL+wZN8OI71Tyb6WXAiuOaqjU9A4tOp9qOJQEak98n/T9EXSsFfooct9RXYspg+wf6FfrMsvIK9yW/8437Cmkvxzr9hzStW+O9Y8wL0sNsvpsMivJkD8/FmAxjhzT54ijcDBcvxxkDzDd5UWFzFbv+Oc7iJNTuTQr7Bmh9zPf+HNWe1532HNSf5Od9jzXKYjN1+MQbW400feIs3U2EG3qyC6XiTwxyMN7fDqrDb763S3mPND6FO97DmZzP7X7DmfczSf7BmF8Pj/7CmE7iJblLUiqT2iatJfse1lE/cY23Dbt/z4tx4FAa97WIsn421XHmebzQqDAT7nsSw2kzSamukdneTGXQYVsaPunWes+JpGPnST0Di0/3f6M6XJx4J1lYKRt+bo5w+sV2sNbS1BUIt7E1qCQXihsfH37ImcPGGTTQs4BANA2+YwMQbBrDwhgNsvOHyxA2fp4k39TYpbjSJLZObZDe6SXHDJbYs2aS4EdbeMrlJyZuNnXWSqCtZB2qfbPHyDjgt5RPP99FEG9195h11vbC+9y5/z6NdEzVMe0+fANEpulEh045ZuD+a6vPZNejcZWh8+JPVib2ne5Ev/QQkPtGfL088cpyMFIzjFSX1SRhPViVVEfjFQR/qskqg9qlfy88vjw/DT9WKCcQOjTSL6m84VxvUsDcYXbvA6yci8WnHTrrz5YlHOpKRgjH/Vkl9ihl/mGL/a70I8s0oDlSpfWr5/J5CkPi09hL5/SAjyKeWw3STfgscEisPak/HaZJhLah9qnX+STmTRdIhqW9kEtS8uRbIp5Yj9xZRIVhViL94Wep8xIf5ETOJtnXiUeOTRm7z/pQuooFk1BTIp6YwXddWpXyK3nWR4tCE2qfk8BgiWPfnlIhF9BGxvz8Z0cGgM7+RSY31T5o3V71CdIqMmgL51BSxz8aqVv90dZPUPrHjyUPHYdfv0ci3P175lgzp4Nsv35OXaaz41Z4IZKRYtJaMmgL51BTMiuLWfOzwETG6L6TOl+sdxYtPYiR5JdBIanXXLFp/QSlZq6+5+fKEv49JuXMin5pC4BfYzCqIygk3NYHiH5raJ0m+nGYmikLJiF6amy83f79cyol/yKemiH7dUVx0SlXg5yVJ7ZOkfgTNbBB5khG9TLrYvM/D7P1bKhk2AfKpKVQtXx42fbnU4z1Jfo9m5n9dQUb0kuhF8dGlYYBoLxk1AfKpKZqZL0967EYcBJdO9vETB43DywimPlZmG1YPfPzYx76lTirHX7wpdT7C+6sWmO0jBf2+MiQjeokNqL8kr5RMuP5cioIXGMinpjDdPKw5PrEivuiFH3cxpu80kOr1BduWkFFdhJbr2oQWruk26kPpbSFZJaVZyJIvd8iiOFVFAzf+oP7sLc2Wdc0cv6rPFUk3kxb51BSBs142a7zX+cl2fHFJ46PvCrBGUL970RR/Wg5XvFAFHifq4/sUFvHrTV8IfHIMU6jy6Ox87Mf4zxi+u7FbYTOHLvFnpe+f1PybVehYZiK+9yEjeumzvXn5coAF38+VaoCAfGoKhn1qs/LlGau+NOIBb9+QK0EAAeV7rbhRjy337i8rjUhngoZVuUEpgH/nEk/1lToMC48ocFx+HjxWxsNo54OGXHC6G+J7g0hW5568jzeGX0/mBWTNm6cGE6re+kNlZMn5Zk3UDWujL/Xxk9v7ZDKil+q/F5MRvTR7vU9gjxAZkGGjIJ+agp+Y1qx8eVBmv59TwWth+rdBUHQtJOdClts/i+/O6mXYbvMeWPzcvN1cYfS+8qip7IirserTUsBRf2lS8EqtxHE6pbsywPfPU2vGPRUnFkmfzN8/tRihkzrYAEK7bC1Tn+uT1GUB/ris8AtNKP6hqX2SV7788XduZEQvzc2XY3j++bMlGTYG8qkp4kftaFa+vPxg8i/HYV9o5pdBMHDi8Mxh4YmvRsOAO1yY4QpxGYLJ27jRY3doxsLBWbnQdwuYtUkJjwcoymJZPrGF+KPnoaBKXB2Y9MnxQptAHX5eVX9g9HoMWobaAcsP4Y/LCtcyVWqf5JUvT/9nPxnRS79dUqa9KTgl6oT9eZoC+dQUphubly8vd+F3vLxgABv36W2HwqQy9dFH88B9GB/G78N+anO3ShOcq46Wgy/m0wbMpx7fnsZzSHk+S7usgdhd5RD0RLyaGemT8Z9bwMJnZfcI0BqLfZubrpn31BV/XFbC9AdLPd6TV/904NcbZEQvuXnNzO9hMPuI7Jo+hPrIJy6bq63R3NwskzjKroNQk8HUUGsy26i0PjV3fnmBC2T/9KMlhB8phg69GKAZnfzEHHYPE8D9RRBxXGPlE46mZqDdOs15s9UgeBIUtYkYNwSg+LQxu60BWDyJhIJn4jxe/J0+2C2n45cJueNCNJ+vAu0zjyHgYWfW6SniZIaMxF+9JHU+Ysqfzf8+l4Xz2zuQEb34N/f8E07Mc9HEJtOdH/nksH9HO7eF2c3at3k+Pcn5XrXQDN8wqfrag73kypENobz90/vlzfGJ7T5FXfCyrbbWlL98OMWXjMoHxHX+xoo55Fasuv5bjTM9HVbfK0x4nOs/O97qlkGh/lPtkHXucUeuhaVvK6+sOqSd/HMO88CX+N4s9Lo3LcChctHJeVD+s2fho2B1rV4rinTe65jrHwtrxhefLPlyPy+KS6VowHCnfK4S7/g5Wa+pWcQ+FJ3xJ+OG+MgnXvW/1oFTf1rSrGNw60sU9WPyLo21iFnZ5lVn8j4Ai2IVU6X1KbBb7+YcP5l5r02G8gLIO9F2UTzYzp69mLNmVHiud6/syt4dY+d1O6wzSi/xxoNwF9Ce1H3AjeMmw6cPCpv4NCHg4ZwDQ3fkOY96YOo26iC2IY7BqK6rFq4fhP0lY5Y9NfB+mgw2+h75KWMXL3ranLOtslz/FJjc/PGRLKx895aM6KW59WFJ2K5/PJvXYLJXywS7+fj4ac0/CVC0TlcN2MTXGE+8NwnwwlEMAD6502Mh8QNxvWkOj7jncBXziVNztpH8Wvc7Gozdqo24jFkkxKcKhO0fiNkqNK3zzpTWJ25pYbO+W+rCqbdjsvmA/4Npi3dtdu0F0fnY0LjBfwkt4OFPZWP/3ljP0RzPQW3sKKmvzx10rwWqHUtB5+viQ0TaaX6+nOTA9r8eDifj+thcHSik8MnntxDw2zSNMeH2ud2skh2dF43E3kNSuMHURV7GQ5P5exeFhXZ4vKDr7ux2M7Kg+Hhmv2nnWBrXHvACjneGAMwn53DrU/5QvmJ49Zxy8QaLjtrhTec/bvAsfZZOGQ1Z2/oUgvGBPYtqD86V16dK8xbwSXkQOPpTfMUqNh9h//MMufwbf0K+nGTCS9Evz/sXU53mDrnwfZ/AWIr+yS3O7scs80EBvpvnDf8nPfLhQxC8NDA/2tbf/3MXeHDH3/HV07gpt3aX35/GTfp2jOGN64sFkwZDWNUUzKdKzecHLIYNAudfBxXsmCvuoUifzNeNjQleGN/jODgs9w6E19cCH+L9Vg1K65PF8mXN6geUFU5GAcVRF7VP8sqXJxx52uAwqiVxndW8epa10KqY9sf37zbeebp2/4PJdRi49abo6N7P+5JPrMHntzXOa0Khf5/zC46VBF5NBZvBbNZmX9h6Hzh35oHOKEcYfwICscMh56MxoLsI4O1yrZzpAD32Yz6VCiqjQ6bNh9hdzhD5RHz+hPTJYV0vbfP4tBH3gXnGHSA50OH5GPxxElXLRygtMe2lr7/XoabeMs0kX2kjF5/U/FrgT6lprtfzyj9//vNbPbZ/vl0kGnV9KPm0Gnx+M8a/j4P3qWuwuXlXK+FAFw1eR6P8qTmgddIQzo9y5Bl5Q/6TYih5ZgG6AwDcl1u4jwJ4fk483rMc6Hx/KvhVWUHFSfHEatKnrL8GgXl19ttjoPVcD/Pn7sq1L/HHSZTWJ1WrxxJ9a6PU+b2Id9LMCfh0Aj7XlcsfvzLyk9eSEsPjJg8PX/xYrw7uHT8XDT5/uX7/ZPOb+Bi0XRc/SCvLn5kHS3Q1wbCdC/ao1tES8GnrBztcwfRRHDi/UYPuqwHryvh3pwF0ewBmMxPNl8fBsfWQ+yQKImeLTyjHP9qK3eZOf+bP1neGDTtAe3oORHcbDkN71zoOV97+qZnnc5UVWfLl0eYtUI1fCkwvvyAjenn78yfmIxrDa+PvfcMC6x8/hU0UueHX9pq8mtW/XWjJ7wZhk76xhB7jJ/VboMF5/tx66E1ns0djw8p/01OP2G4P3bomxR33hKWXBhy8OiP+9u/Wxu/XF8zVdyj/x01t1a/4VZd8639mD4/03fq0FGIv9Y17+qiU/bBNQuHZrZ4zrjp9ODJR3uOnufjqD6pD/Drp8+VmGZ9w/lNqjN3zrs42251H3qURu58+NR/RCFnTdlPkywMXH/LIxQOr+w9LIGtIicUCV0vhvo4dtz4Pggn37+6ZbJ8XoRdov29eTKZrHOh2XRmOOc+K6FNicNfP2TuItXrDeZ0ToXHeOhbnvfF3z63wXmSQ+dgX/6bL2bFHZ0s2eNotFXj0CS/pW+vbQml94gf4q1R+T6N3L6nz5f13ymO8t0q09eK61/+6kHdp5JPz5Y2CjyU/zpdT4bEPu1lpRdypQzf3FhoMKa1PHONSuRwrywthbK6S5csd73z//e+ily2wkEZTfHq+vCmk82nenV5DTwynmINXNHNtCw2GlNanwMFdVer4ibGyhOJPRu2TnPLlUT+KRBebmsnTEuwfRvf1XNL5xA+wriik0EngdL7iU669roXy5iOad7270hIze5fU+QjJ+oQ0E/7LN8S5f5rRbM6ER5mQzqcGwRRoocGQ0vqkcvnyme+l9qn6JlkXjx/lWU4fQZ1H9YzsTN6hgyAvoks2dpHiEqZP4hN9ajmUt39SsXphsuTLtWLJoWHMThGtfPUVGdDERcIjZTl+kgNK61P82ImqlS+XYX55njVZoiJ65wW9xzSiR+vWB+jfChR/jODrdOb3cJBPTSFIy1WpfLm63XiKI2FqnyTXE8bvPE0ErZMbM8Uz3yAF+aRwGJ0nqFa+PCaa4vuB2idJvjx+50MiaJ10IH1C4z3FE/vmqUodPzEzbSg+D7VPkny5ivjkNha/5o9OkE9NYbpNxdZTe3RL6nzEiZp8uYr4xGXSPdRAPjWFyuXLX22W2qfVF8iFyFTEpyB38VQ6GkE+NYXpJt3/bL6co0X+TVTEJ6PfmltvWVqQT00R03s+kS8v2zcxuBWzwYNIQ8iyvkbpAXIZMRXxCeX3FI/QIobYETv/Kfr1f7+2Uv73g6gn8TG052+lKFpE7ZPrF2QFJRXxCZ1/Ujwsw3LiINbqm7UBrZfCUU8Jn3jqGlLnyyXrqamITyhfrnhij/Ygjp+srg8St60UozOERqz0ARTVeah9UrV8ufsxui9aRD41Re66aTU+LRK3rRP+aXK8F121Turjp6miOCJQEZ+EAoquuUVBPjWFJF+uKj5d2Ca1T+kvyEq+KuJTybk0cUsfyKemkNRjURWfZMiXC7jk97mK+DT+T+lW7Ww+SuOTg7L6FBY8hLgITUV8kmV9jeyBxLxsVfGJ3voROIlH1pKRgvFXVp+EYWQ+TEV80trXj6IIGLVP3n+pVj4i+B3dPjn+PH34yqWKp3z3DzOU0yf2AkPijamITzwtbXIQVxtqn1QtX273aetrSEHs5a+///4LxfP9H6LxyulT7szpKnX8pFm96j+bLz/QsUzc0gZ7QK+h85WCLR19Kb42lYDcsyMa9olT5mDu2HiND2ZAWV6a0MK8lDwUgdTRH01yLjYnAwn5nl4xMWQMgRniy2Q188ryTCE2IJksgiD0+qg6Hi8khIzq8yEfIUP9iEkqli+nndLr48kI0QCN5ss1g6b1TKBavESMeAdWt+liVypI1W9X48yNQZiAdZXqE04GNdgPfZyzVrLmueGRYryJsenepxKCpu9PFD8KAlf8DdW5GF/YrqGFaD/4JMP5J4NR5JuW+JRm70XMVopPzaYqmCc0P0hM4b7dEpWRYnUcwfHAx5fnq+uI63457iH/JcRwQ60bqmZb41PmYZqrksV9+VQ5R1nKg2R9Derx3rYuZPAR7Arin7bsp4nYnvlWvDYCTjTW2ZTWXafMr96OEPZ8H8C1SeQ9SH4fJG5jf3oLoLdFUqEtJhogoO6Wwhoq4NMsnyRIfMofuilHHAx9H07pU/p7Yh3KSTbYHeIfrvnY3/OA1PvknNxaxJ5YijeGm2t/D3FdX9W15cNvr/Hp2N8058uzj4xBPjWO2pb9jeTLebPPYPuNBjMR/6NHc+Ox8bl6NEOopiaExd0CxX2H//vD4HtOPGLjq8VjMmhBcY9MrIMKzMN+LtCI9gM+mweMyg8rDOcfXcYCznBOvBZPM4YFgY8i1fCBv9rN9XC+v3hL2poWFsDVhKTne9mY83nY5rQ04y2Aj5nJrqQ4a9ms8Z7nPvJb4MN4z+armXgHlH32X+qves87eNF6rOfG9uY4cbf6CcQ+8gEeRfUYYIldKX2RKb5HYvDCjIzEhC0ggw8+0Z4vRz41iVCb7DwofRK+eQ6B98e7zZnuKHx8dHGvi1u4Zi8H8VZOsxds/bZE/FdM3Hx8jZv4u9z4zNaXRvYvD3EXbtpnCiW3I47lO42d+PCYr/4asD/utfZBzZEY3/v/piUAj7/opWnsMW/IfXZ8xsWhTIi5NHHNKvHuNaH9/PszLHVvQNbPQ0uFe2z2348P6XJ8x2vLaYegoF/n+Q/Em6nNh3zE5Aip8+WHRB/lIw4+/FwP74a6HcEM5xd6sYGZFps/AR8Exnr5a7FG6w/3S+UDxyIGCnQXc2MS1YS5/kxeTBk7IQB7Dr8wJEwb2+V4rACtPC/882qEJHOBp+aYGxKt7h+TkCjws8cOHAX5xmVCYHXxAe1cNmiG5mkA18EYs5tnMTqRyzEVd8OJbdY4ZuDFZdiho7HPVLLcMqQU/5AWCeZC0Jo/PbDm37PGJ7t3NOf3kE9NorXagPgnatAn/tRdTmVtqiH7y8lpHt8Y8GeshcrZt3kLHqmL/56Ju9ZdXih+sva0hwGhml3H8+I6reRXbkiyfzWIOW5MQKjGm0Xgvl64aBjxV8dgef/vt1UcyOlkLkhZBrlHH6R5fOkOYZs3fjlA/HP1TuPLStXHjQfNRwsYFevNvS7eZenOKRutPXYO9F/Nbdf+I2UkPvG0PylfbmPz8JUGRLl7/+IAYQduH5oT6PJk/arZ/Xhwe9Fw3S46lcsPdXhWDcYXroHBug5FZtNdoeROZ61ls27PuZMNMRHn97/qg3WfnLs3bSc9u4vtgZOtU96qa2141O7F45FtVo/R3btKtxdHuMjVa0wmaLZfAIc/S1N387z7gNlhYMYIY4jUCzEKLZl5AH8vDs9fHts8JgxKq337LTMF6/bB0y+344P1Y53epzj5r+9Y1XTENT4FI58UTqP5PbFPMHmMFqw4DGmv4gDGrICJU6Fs2EHIvEM8JfHi/ZTvbPFIaOSN3c5/C6N1i0FvjseSaitI6Yc9NLc/dnA9eks3yTEW1gN1F60Hl7kOcHgH5O7CjklmzAC1zaef/rJG/OOx2CsguA8I7+hAxLiD4QsL4DW+aMPWYyD0d+o7+KMjc4lPWjcOSd0/UeTLD9x2/sFGYFvh/kMZeGxIGn7WMPFNf67OUQZ/xECYpMsffWcJp7oTCIb1gyT9gzzesvmQ196QN/BqLqPNKYh8pOa3TXxho9fn1pxzw4Qx40YLHT+bIsx8n5SrNeRFTLzucW7SulDOEE/2jGDMJx8o3+xneSaIO8HRNSnmhRucGxtbGZjY7TH+Xso6nWNEbZysOd5FGDP3LVgfzWBeu5xhPtZMOOHqEt6Ul8KaL44an3y9HcUtbSCfmiT3LLEMcAM+3ekBsOq1BteoHzjO9ALYYATBh8F/2kGweUP8ORM39mOc/mIvFvGN8F1+6FsI6W4FETuwWMi1W481IyIgxDvSZ3oRFuME5mFd0IjLbJe5ZdDPjvDpxBxQu+wd0/Mf8WHBmQjsZkcf4L/RgX54jpYLY1yxZuIxsJ9SvOBFwz7FX930KfnyAzbwZnnqIva1HxxhyMiSeUsS80etgahX6oxRE6H6KVh2KwCbzzDh10OAfgn2Hk+Ag/4esB0MMHILFG8yhtnz8O0k4StfdmL5zsJGwseXazqfxP6RJ7/kw5hToDazACDEuVcfsU+pt/zZ9ze6aQJ7QsXgBxByZ/BKiO2BjTmx/mnaEuwffJlnN0uAa0+4K3UdIXbWgIEzNEEwLgX6d8WfI6bGJ9pBPjVJ7tXGfIJneP/0WpPXZwj4z7QHltFu6LMVLGcuhfBnQh6+C6dtPAHa4/9cjIVGeDZ76AZIbW8P837cA6PjhClDsIfmPmC+7AC79S2gSPwFWjnEFMD9rNbtTvkw5z74Xc0AbaN00L58Aixe/5KOPaPnOewm2A74j3Qg/fOlkFcMr09hD21dAd0Hgnt7zZqv5ho+5CNkyO/5jiQT0h98MvCA9F97G8CgH8xg4hbsAVbi9DWQcSEMrGfcvmuMfVUEgcEs7A2uhzzcpxUdILGtNdi+wHyaBKzDk6wfi8+rJZ11gjXdGXuvRmPDyrGM4c+wTnPyS45g7A2ImWnPHRBh0iEF2O3XgNetMp7a5CsnYgetTntdDWAy/vJKizOkT+EAp/pWXM0GsL3DWdo9EaLHrDk1TBOg61pY9LFPtnYfnehrWZBPTSJZX4PKJ82sf+5lx/a6EmV5dliM6dmJ9m6DwsBg09pVt9ZySn/ciuey2QP+fZEKxaKv+saFvNJPhKJZR/Nz9adN0Br/btRb/7KqLg5QenlM0duzk4dsvKvdUR9Pmzn06OO75OliSBw8zW3MySRW72OGD6rVY3b/dccJDn79x3GvhM1nHCHg0Zsi3tjBt2Mf/txmklnlurmJkHjnUWzvo6uHXM+pf1Lsg08yXK8h4YNPPmtAbeMjddj/uz/o/VzB61zoOGwvWN1Sg73tykMBEl54wgJspPu8AwR0MgR+8A6YsO0guGMPdR0K+Sd8s4h8XeXmZNj7QtNhswcI+yyEg0cxn86N5Qqfu0LMRa+kqqVgtAI0Zu0F43VpyZWg89n5R3mgvwoSTGDipKLpq/FtmHe3AfU5WX67IkDgOgQM2ztC8Usz501xkNt7D9x4DjX/CDU+Hfv7UzOOTYB8ahL1G3cbzpdzHa2KTTUtrQItMhKYaTP3hhhjwxfmbRcTr1KBcPht/JuYm+cZFwtq2ZFWphZR2RqglR2lDQkeaaCW+dgJ1KLi1MDCPoSZvyDIsaSU43UCP32jFZLgaR0nxI4ybLMr42LAtDwyRB2YhVZR8RCTHVkcGxuVqg5qcdlakLegEKIN9JwgOspLAzTi4jTN9kY5HEyu/2dtVv+0siOZw5f45Nj1dSKkrwbzUf+3Klr95b0XU9h7jkz0a/dNJtzY3OVFz4ycn/bHTvzcKvTV9ECtGZ85C/e8H79q1vz8PpeLK0929/N/1GXwrA4sAIHeL9fS7K5kwYFptgNWq6sPvTJPaNHrolfCzJ5p568PcmjT/trbXcM7X06J3v+Tr/0xgwV3Q4722DtOP8BnbKRrQcWVHXhaT2voyyWT3flgOGKhD/Y9FtDzRPg+Z+BMeWozyIYJ1je9a1L6NT6hfLni4WmR5b6px3u1yMO+GD+V+IKas5d1B2z1h28yI/GJ7f5Y6vl7H+f3GPlmTBBwgJXvn8sFzaDyGNAoy+UE+kcX5UQ5BHi4hZVZcEz9NTTN0rhgVmABguwoU0dThqmjBtvMjFW8ONEh9YQZ9nniEy0Yfv4aAAFxedgWTf1jeNwify0txzRGjH+g0CzS3yI7TNvflBvoH8ZwTA3g8Co9/fJDWOqFo/N56mWm4t1WuzKhDP+y85+Qhx8wxoeE4OfG+MnGjlwATnYpMbD44BOt6+fiIJ+aRD1iccP9U2341o98ak54NBeGI8Xati2CxCeeujqFnNQ+HZJhfrlOp8iApKjG69uxVhx3ykvypTpDSyuS/onu+kbIpyYx3daWy8APY5vyiRVQaUIxklISJD5pb+krdb0wWeaX507qEdyvqVUGK8bM6FtdMzFYftT4VFFdk0GlCeRTk+RebQPzbt1gNz3eU2okPslSz1K2+eVMCzJojGiKxXJop8Yncb6VTpBPTaL+6jnkdRE9dAx5pxI+yVI/4uN8ROukxqfVXcn6MnTRHJ+ELC1lQ5P9qQcudWFEru5/oqOYvka/Xpl4Yuw3ol1bLuFzElorH3ySYT0ACSrik1LOLzd/cemmsrHuPPnmWgB+wbJLv/753e//R/LbP//39/U/RaJZG/E5Ca2VDz49uSq1T7c/Pp/bKpHkI5QxXx66/dvn45SK5y++uku+uU/Hyejrr97N7b/bdzhBheHB4cO9t3+x48C9Zo33uH4UlyRpmarhDcMiUIOXlg/qeH5XDNNc/ANtC7W0oppsL4Ym8fxPQOITM9yg1oZroPYJ1Y+Qkeb4VHoFn4WmVDjdHEhGnwrP5xfRhQcfrkQCYB9yg8h/fn4AE5qXj/AfNZ+MapG0v1cF1sQuPOXFb9cPDryqqWtQdn84dsurPPz0mu2qYsnh84Rp4gk2n4DEJ2EYub5BHah9orheo1VS49PbLz/9DGGjIJ/qwt3/1U/t6vYnuZvb8gzHWktxPpca7Z5UJQUKP7+Of1WWpHPArAwqPq85TmbmEVe9rv+ikjv1J2dxjOF3R3Lxuxh/metwS3xSTzGiSLFR+6Rq9VisbImWNprnE37VgVIR2lI+uYo24/1GbXJvteGKpyc0z6fowKn3sSZN/IfkgBZ5vpZz+PoFzKHyJUysx4C8W1jMdhAXlSBGfqt+CYWif1OwiI2fMmGOXQxEeZZ4PCkdet9XfEcGJD7FX7xMcT6V2idVq1/O59St29HiIJ/qkPPVZnLBow80fv1TE3AX7AnfZgfxqyrc+gPz7hjniWeIIxK1dJtNnfwgawnXv/d+qLyaBIZ3O29IBusxxOXi53Y6gcvf2KdyDn+8oRTYveyM7kxVB61w31Pe6lB92VVSREJKPuQjZMiXF9wgf42K+LSqDbl+KV1kH+mFfJLQ+X87iWIitfmk9QBWrbdI69YHbi/T8D2aJEjf6RzS4634B2oLY61+GMsoDudrTxuD+VQWtmOBdvdFULzZQPzzQV/Mn3rzmAZ0XhuQf3yan3C6UdTiKwu57u1i89qeAM8X5ynmODTKB59kqB8h5BOvURWfaK9fbnwP9U8StN6IxJfR1kUzx4X4J2qGT353DgL0vQ/s/Nxrj7Ih42o8nDojtlNtYCIs+b3jSl8uzJ+D90/C2CLLbicgf4SN+JXnfi1Im3Rkt3DOKYDRNw1h3DVsQ+OcdLMA9DZrVepaiZ8lAxKfYu5USe2Tx7j69cJaJzU+0Z4vL7y8vCZTKzUq69Pjr3uRX8e1EWqQu18zfPLaWA48zKcYvfPW3YzB82oYuD4Vz+5WW+iA/cLvdDMFcFzsE78gImTZevCv8emXSlBrvytWdx+A6dED0OMuJtJLe7xwWNZmtdDuRAExGZD4xCg5SPEnp/ZJ5dYnpDtfHr/tQoPVGBtCVX1S7/Q3VXHVsA03pJtfTkHuq77Yl+J96GAEXrMswX6mFrR7Le7tmAPyAXjtRDcAtpwG85m5hd3soesQSGvjIn5l9S8OwN61K6bPNB54jUoVznUHGLootwrrrnb35oR0igMZxxUSn4SxuRQH5dQ+qVq+fOsVmvPl/JnfIJ9Ihv/2mqqv/qT1n9zvTTJYPiu3w8XdC28OiX/wfytze2yqxB5nHtS3wYRgrVjEM22/y9/m/3RMth1bOq1b6srth/E3kX9G1C787TobsOzW36rdXoEgeIzVvPllYDs4M2jSBEgc/NJSxhlWEp80Rr6UPl+uYj553a65uowuZv9frZo60qGqPi0SUU5a+qR8hMDX28V6XnxaRLrxmvNhGbYh8fMW4EUXGdk+2XgvYREgtMhc4udla8zwdQ0q1yusdA/CRcnVST+4ci/eXY52PzgB+8pzWHN7D/7ClbYrnTA5rNuZYHdkQeJT/Drp8+WHRWTVZBXxiaUuc7ZARk7/sYSMpEZFfRKO/D6UDOuQe5HW9XMpjtjqQe4CMh/n1kXikyz5cuPH5CUYKuLTqfajxS19ePyfzAsCqKhP6m3f1ynXW0Nu1Tg6fZIXH3y6tVFqn7ia5KGWivh0/ze61/u02HlW1i5QRX3KfzaL+EevB9ulgtipVMSnmMEnPyrO15BPtp2SiEBFfKJ/vU/o+UMkGUmLivpksnEE1YIRIIwOI3ZEFfGJYyU+QqsHtU/9VC1fvpPmfDlA56+7yjgyV1Gfkj+fTnlNRMz4w83OlysREp8E+WZS58tVLb+39hL5/UAfwqffGZKhlKiqT5epfTLd9An5cuVB4pPa03EUNZSoffpw/mn7SCJonbjeInwyCfrUy8iaxviPO5TH4Q3yH/Ppk/LlyoPEJ1nml0vmR0T/76dhdDJiLhnQw48XiTylRi7xp6QTQbCoj0yTK/9r/dO6tqqV35MhX54cTq7hq93jyUw62fz+FhnRwpNj4kXoYP2ThpYXbkGSjorOkaFU/Md8in02VrX6JxnW12DHk6kLnqY2WfqGHh7qh5ERLWizic++4tfG6222DFbf/OtBhtLwH/OJWVGsWvly3Y8Xs2nIJ72j+OQoOfBqO/HmaEYO+XKc27/+PlD6s1D/MZ8EfoHE31pFfOKmJlD8ral9kuTL6ebqT/Qf2GDIIV8uRueeaD7FIICa/5hP0a87EicUVMQnfl6S1D5J6kfQzdkv5eLTpIty+jz2j0Qjmqo9jcHDExfS+qTlTJFHCu1vCfbexA7K1yOuRcXx911i4GMQSRw2ygyt+YgP+fLWXM9SUONT2PTlUo/3JPk9mhFc/PYTpydKR6IXxUenBYeeou1zSpsa9O2peoztvFL6VHiRYqptycZMCIkgfo9wzYcJ3ep6v7qOdp7/Gb6KH4mAcvemhE6fauXLW3M9SzhWk4+QoX6591cfldOgBc66y3LxKTZA1jIBzUbL/f3Xf3c5FxKvxaA4fU5S/tvvW2MKf5TOJ7evXtfZEg//J0vqTkom+fcjM0jOX+tgY6uIfxZirxHgvrGW4GNdIcXcmI+htX+qWZ+w4Jdevr4u9KGjQwZ04Lvks7GET7Lkyx3IxQTphrVuk1x82rJOTuM9nOhVt376V3RFf86J6oUDKVm4cM7Xok5rLklVfy/s8NR3+Gxe06BUr8UBAPn2K734UDYtkzd6OI+ZlBGprZFVCszQIHvx3yzrd3yZYvbzS5VQFrUyVQAl21YHQmLGcOOG9ZZAp0+Bs14SPkWd/W07jfzy7b2dZEgLf9qR/dNZ6fsnNX+ZrzZtFtrbtsnFpz7b5ZEvl8AquDFu16ZvvhM1yA8/iETPf8RXVW6ScM+87UMxFyreG+2ddkbg/3pJxslUcGjrIjTaCLdXJdqNTtrUERasST0hnkPv/PttvNkrOq/RPUOnewh4fh7hn3/GN+gN5VVJdaHTJ4Z9KmF0oG/OXhoZMGZkOhnSgnsUefzURl/q4ye398lkRC9qm69KNQ75VOSUL6+NX6mnTo57A+w1+kX0SO+mNP0TY6gZ//63SQAx04dA8llTx72cxPfnoaxtJujsgtUvRqupw7INMGmOP0c83Yn0aZ7IJ3AxFLwJB62jnSHJg2F5VIoLHun0iZ+YRuyINGOxqy2TDGmFX2iidPnymPev5OKTvPLl0lL6StTLPECq46eSjjm3T4jcsP3k9TUwuRUAueGdXxE+zTsq9Ht98xwf7m+APP11RI0u0qfqP1ZCms6CTuGgtssZGyTquMxSsE/xo3bIZSziMPMF5fVXLQ3XEhtMfwS1T/LKlwduOioXn/rtSiUj5SBz5w01KfN77bLMAwLGHbWAeNynmbnJK4KYs86D/wgXMHzCE1qs3qgHfToCI3bfTbEwkb8fxG79LrTRtjw2Oml6JqhVdYbsFM/YYUTBn0ahNR9RU4+FZhKrqK9nbGnC9AdLPd6TV/9keumZXHzKzZNbfk8q2P7YoYQ0558EhhH4H22hKIeR382bG/Vj0oHNDqbbHnOSn+QIbDexIvcIDq9nPx3Jz/Fn93HFnskNF6WHRSeN7FYI1VUWXkfv8tWqdmtGHM1zqBrY9DExnT5J8uU0479rNr44Oe3EX70kdT5iyp/y+T7PvzS7qVM1LYK/3M4/yYA0PsWs2IB92TKuXXxYWTzrbZr7ozUh7Xv5ju2dZ/gkIt77TdTtGQfPmZiMep27etKSa3gN0rKpV09XR7x9HANg3H7kgJGv03hDOy316tY1fc6cAGKbjUBr//R+uVx8cnzyRtaa5M1Clny5nxddy83XxfHmC7n41PFzsl6TMiHV/IiaQ3gevgQw9h8Pwkx5WtrkgsA8YJkx8efwQMtM3NPjTxEKiURaTC5PS4MHnCI+FgpYWNgUdPoU2K23XI6fzJ6dlLl0W3OQ5fqnwGT5jI/KLneRi0+014dtDv+x+Xvc0sKmhW4B8t88kYtPamNHSX197qB7pWRELwGf68vFJwXky5vmv+ZTpblcfCqavSuNDGlF4IgfBNdHsfmIwh/bUrynlkfZ8uVi/mM+WSxfJpfxnt9nF+TiEyejgCKXRu2TvPLlTlfayMUn11l017NsBv8xn+SVjzB9MbP2sr20EdNe+vp7HWrqLdPM6G+fy8UnNT+5/Cll4z/mk7zy5bntr8pWF6eZyFIfNuKdJRnRy+gjVL+95amMpPwTK5b/Wv8kp/O5sZ0uOpIhrciSL482l8cUqJDiCT8+DBwth1Ti259RPkIaaD1+mmskl+Mni27b/MmQVmRZX8MsQx7nP/t8732xR5tNUsx7/lTsfkL5CGmg0yd+gL9c8nsW3d/LxSeN3r2kzpf33ymP8d687fd2XhGdCSTv0gjKl0sHnT5xjEvlcqwcrb+pjAxpRZb1CeWTL+cfEolErxLJe3SC8uXSQadPgYO7yuX4KaztZbn4xFhZQjF+pfZJTvlyzvN/r8vlQr/9w+RzPZdM/NfyETXXu9OM2rTPHciQVmJm75I6HyFZnzA6l06il16aGEjGtBBLfoNohsllGrts/Md8kle+XGPuFXxiMO1Ez3wvtU/VN8kkwYv/I67PbqV8Q34MY5d4IlAm/mv9U029MJpRb3Ov6Yn0LYAs+XKtmi/2mb+PoJO546aTES3M/I287AQdP0kHnT7Fj50ol3y59qgv5eKTLPPL86zJgoi3LhBt60TnHnkYGHwd5fekgU6fBGm5csmXaz6/Ti6uSS/qduPZZFgLap8k1xPeuiWX+d80seAI6VMK8kkq6PSJ0XmCXPLl7DPvCsmQVoQx0RTfD9Q+SfLlKuITGu9JB50+xb55KpfjJ9bYnXLxiZlpQ/F5qH2S5MtVxCe3sSZEoEz81/IR28j11GiG+fR/cvljRz+6JXU+4kRNvlxFfOIy5TLUkI3SK1LVs5QnJpfo80le+XJGr1/lsthS9KvNUvu0+oITEaiIT0Hucil5IxulVw4zWWxlgpl9mcb+aZOuXHzivPyH3HnpRZZ8OUeL1EhFfDL6Ta71lqXD5N3lUdOVinEvvlhNvrnm05BPMb3nyyVfzu/6p1x8kmV9jdID0USgIj4pZX4v+fWsZ0rGm2EryTfXfBrySWgRI5d8uWDG73K4YgFAe/5WiiuNqH1y/YJcr0ZFfFLG808m3YfkxiobgZ9+MVpDPrEMy+VyECvs/b1cignx1KkKsFH7JFlP7WOfYteciySCB3qUx31Oh4nVvc5PFTdSUWaUH99vLwRujSMfaBkkPiljvtz5t2AyUi0a8in2aA+5HD/xTv8hF59Y6QMoCu5S+9RIvpzr/NvMGDzY90U/yi+zgCftxK1XOHbMJsVliSwLbCy6WFu9mx1oGzgCtGCpB4lP7sfyiECJcH7XpzX3/Q3SkE+566bJxSdY9pdciu9EV62T+vhpqojsKCjGe+qd/lqINTEjvsAbqOMorg+n5wPiDoDmoSjAX19nG3ziUnoe1vnj/b/QQLwZgPs7xN1n7haimgZeCrUexAuJSVNsYqu1tkwht8QnnlAuQ3eZyHq346N/W1WgQZ/klC+H8V/LpfhJ9IVtUvuU056cAkXl04nBn2kArBn0v4FYJ251wJfhkGOvMwQbULE899j6WrK6uloPCQJNnXDIur4/V2ueL9dvTQLP2DbDYArW/Zhk2XhU+GG7eGpOGdfZhmk6a24ic4KPH/QJ5oX6FAq8NxmqZVU78dLCsV6Qm+HulXPKwTJitTZoZ/vuDQQH56wFpsAYXZ6Zp61jyDfzseR2DvcdUsiM2pPzUVlQiU/W++VSkk0m/ms+yWt+ORiJ5OOTDPlyIZ/8PqfwKT4i/LsciPYu3nkNGNc8y588Hv1lyoGHc2Ng8fzkcTeHM1+uODBnWJpGjzdguW1QEXfqI7WYLid4q79Z5NP9LRSdPljy0338gq+MswvgwS3TmKejAliL3yXAimCYd8+Fv7pqqZrPDwZQaReGdX6Pf63W++ypy6oLB8DmQEibYNYy76JRi6DzvsQcH+6GWVqBn91gzP9xX0er4elOZ+bUv55f4tP478Rr9ykV/zWfwoK95XMRWh+RXBaziL+6SWqf4tzIog4UPln0L3qhz14T6fSrG9i/zqzouh667YeQTl4w/Qbs7q4JZ7whr4snPO4OWndWYjt19zDo4w2hnznDglmw9KQ5tBGP8PymG8Dw7rmwYQcWn/WCFXZgoXseVnbHup+Rk2Cp+Eum6KwVuL+IgQ2T4sdPLp/aNTorzfT1eFg5KwdyQW+aNixbBAdfOIDf+IHOQ0bVv8hJ4pMy1o/4r/kkVKO4vIEO7ERyWUxda18/iiJg1D55/0vuiFQ+7RN6/JG+ysLhBzfYvSwkzz8aOu2GCcPiwHUYx82IIeg1GUK7BcHq7hB28iA2dsR8MvKGVP1i3Kf8Oz4WY7Lw7ZiNsIESzKcUI4A0wie/YS6wpws2KNTpVHkX654A8i9YwuKxFtC3Q0ivpQFluXz1Awf72AFz0I9j82Eg5tPI/uAyzhychmUFlKXVf68Sn4LfIZ/kRUM+aS4wlM/nTRGRf3V6wVc5IcNaUPvUSL4c1E5B7pvvloDDD6tB5w628+fyuu0G42kJkJfiYx0G/NcPwEk/A/T0IexRBcDubiw4vQ9GL88Ag/YgcPPWIfZtx2HnwbBTPNhh/ZPpVUuwS4HYtrexh3Kxcd70h3vEg22/KkvYPTYajq/3n30b+93mK9Ywpr4FDc3U9nNgYVs+PIyA2+MSweHFAmyL9fOXEp/slHB9jf9cPmLmdPkcP72Vj0+aD861RL6cEzfDDCI2BnCWio5rWczutFRvZfz79SzfjQdhUMpCHyvtmGd92eWXwlknLsaw36wvg4MzM0e/6K298mYmu92meH+jQ7t9xcmO+Od9Ql2vhMCkTk7MCduttaePYoe+d+N5rrsdC7D3svgcgnDC9T2MIbsK1c+8Zu24vCbTo/TqqsSu0+LnpYftnQOZF+Z5neyjvvBsBo/Z98f0PXr1BxQSnwzWyqXkjUz853w6O0I+Pm2Qz2IWstSPmNRwvjwsfXwBhGYJole3mZ8I9nNnr2dnv3b1s23jAYtHzZ3WJdOya4ei26N2+w3pmgrXsEfD+rZN9+4QcL5NTtGUXhNyU6aNWH5ffIGKYaf5a4LPg/20G4Hne9gEpKTkZ41z42sZjccOJ/P2i9dA5WT2PBB/aqyVyYrgWL/7d3o7coe0cXvc0z5h/oHFIWCRMte235CkgeN8eWDa586Yj6bpS3xSRv5zPskrX75VPv2TLOefPEaRJWIoxnv1+JBTM5+E3SRn1jkPJL4iWLyCHsnkediNdWdxzCDmn3Dq/goeA4QwL4hibor45DD2+/BplTF4rohXe8sUp44lPmUelkvJUJn4r/kkn/U1TN9m9RN5rrpL3qURWXyS0LRPH0iYPX7QIIMm1oY78WjIg9UZFIVqa8G/O2pfixSNlfh07G+UL5cXDfmktmW/HPLliV+90v/rzL+9yLs0Ist4z3MfqYUsPgmiHri5NFVKMNDgXHpBE4lTQVa7lrnCUuITypfLj4Z8EqrLoyY+/67o669El+RwxYbm5P1S58sP1QxBZfEJQ8lm9Uh8snuH8nvyoiGftO4ayOPzcoJFou9vk3fopKXy5a0IiU/ByCe50WA+Qk75PfVRf/YnQ1rRunFI6v5J1eqx+HrLZYktmZDNJ66P22TlZODSul/TDfs0l/Rp5UDypbSwuOsvU1eTMR1ULybmgsoy36iRfHlrQuKTMiKbT1q/ir4mi0grFdib0q+bim3Qp6s1PrUVv4w2/u/Xr8iIDv4SiSrEnyJ6l/T5Pd+R5CoyKuKTrZ1cSsTLhGw+ad974xmkhHhm/ThNOp9MJetrPP9pHp2fxdOTzq0XTPlmuPhTyHK9hgQaffLPhYQH7kFeHHPa8j4Sn479XUwESoSMPh0ZS0bKxisp+yf1U3fJfPm4SxQHHq2GzvfI/kmG808rt5JLztPnU5CzpuHIyNCOvQSJLnQV85L41Prz5dpHxpGRksG9ulw6n3haNeW+x122IKPWiPURwie2+2Op5+8doj2/53Q8HsacBiidCrz0ATSd6JP4pIzr5/7XfFLvP4D8vKrhk1CGeiy0+8QzGgi84O2+XKgEKGpL0wTGD/2TEtY3+q/59KHesmr4pL2lo9T1wmjPl5tdLQfIPiuaKJ5PMWwKPSeCJT5VVBcRgRLxX/PpQ35PNXyKv3hT6vWfaM+XV1zCa9BU3hddwKfGzphB/ku3MBKfeEo2cQPH/sgcGYa5yCdlocYnWepHVKylOR/hsikU+FzgLbk+E/tN48fRk/CR+HT3pVyWMJEJk0vDKI5nG0IFfLpYUy9MRXySYT0ACbT1T5tGQ7QV9u++5NeDAHMe0tw/KeP88tizVTIUY239Pmlf8yH3JRXxSYb1am7TfT438WpnUF+7UJ1dMhPrOYbdoPn4SRnz5dyj3zR+2UodWr9PPO2aj6saPjGXeFD0AtQ+0T8f9r4bMM89HOh+/zY2EtBt2TLLEiQ+KWP9CBj7RTIZSUHr90mjw+Sa87kq4ZMwjGp9A2qfmnu9hvSUbrEAJi8wCe8ybaspFvZtCSQ+vf2SJmM/hdX/rCIjKWj9Pn24Plc1fFIPvi/1etRymF8eGUlmG4UOe5u4prfZSHwq9hGXo1Au8rZ3IyMpUIF8hKR+hGr4FH/xMkW+PF9ENS+ssfrlLUUAeUk710RcaY8OJD7xOUqYMOcd3S79Zcgq4JPk+icVyUdQ5stLRePJqDYFp0yJgEafai7mrfvXaFEkPq1qI5cl62SkWrSDjJoG9U/KgsQnyvoRK0VUyzQ1Vr+8FSHxafyfypcvx/4iG3+WeqJV6/dJM8eF3JdUw6eYO1UUPu3/bjcZ1cZjnNT1wpQZiU/KmC/H8BGNpEi5UtL6ffpQv1w1fGIs3UOxHnCnK+TKNHVQtfoRO5QxXw6g0V2kR4ZN0fp9CttwQ7Xy5bGxHx+q+H/3GRnVgf58uVyQ+LT1ihLmyzEqL14vIMMmaD0+OV1qQ+mT6caa9Z9UwyeNkS8/zpdvFZ0iozoMUTGfvG6T69UrG1nvNku3Eim1T7nW5+clfZy6ZNy+JmM+k9sOP8DkFoT7hvCgzGWepvNkQf7ig8QPG+Ujn4x39qacjSlTPiJ65Xnf5MZ3vURfF5sF4Z6NnroM8MRvowfiRYmbYulk7Cbu2qmmrkSo8Sl+3cf5csvtNymvjT0syiYCFfGJpa6sH+Ox6Cr5HhuH2ifNNdv3UXxTsNfeasonTt1jaeEUvAMXJD3b5sgDjYerueUPeLnd+xI/bJSPfDooWkRGdZFpPizL8N0Gi4Y+g7Z4O2o3vt0fV7K1k4f4MTGa9UTmGL3Gm7TPjLBbipNFEhiYlVmYT8MXlq9YQj7WEDU+UeTLNceJ9pJhXYwfk59YRXw61V4uSxQ3A/7j37+RpvpiA+M9+z9yyKg2PJ9H2D7+0e5Y60/JneeMN8QBTa3H2+3EDpw1jxOrkRw7gd2It9KInR/5NEhErO9fn9yq5zKM9yr/+WjgRL4JXmq4hjg4sL0z8HJP/GSLxUL8M2jb4hO4xCGB4+df4ksVCoyMgG8o7qo+/iD4e+Kd34PfAoyPAO2mzoZKfLq1sZ5P/LUiI+pLBjha5L+Rivh0/zdlzJcTLP3xr4hG9y8Bvvs04FPUDz4Qax9i6RNgUWETA/HGlnF6VkJYclIIuVbWseDgaRKZGZbokcUFXqLV8DBekr2/tQ4Lbu+6pg3RxlnZLGAmFySwLIqxfgnD79uJAEvC+YwQLw7sOAyFWX5CiDW2LgXIi0tdQDE2re9T4sU7xILi9WG5VJBPlMYnp+v9gRVi5ecRKYTECU4lu/0hNtIBzIO0tM6cGS3ekM2XVtitcNbn8WAWNbwSeBGPbvN5aRMqnMi8Bzfz3G/r8Y81sQ9kXF1lCmHZewohLGi0s3WYfULiXmzniDYOymBC2ZO30ewQe9B8kdL0Oss1PsUMPlm3kJBGR1GPBj6YbSPrUbciJD4pab6cILSbaPb5Ro7vKp/7YqOVBvqn33ygZOOxAfpz9w45egKyZ/Y4MeyKC+YTmDwOmv88dt/nU6Y8mXhg4rYsCF0Y13V8/I2bd/udzQGXCzf8+C/T7ZefB1ubuC2l9keI0ya88esC4ZAxRPfozoY+rlpTXYvA3Ns5vdtBOPVjP30X8ZPqUM8n9Rnf49/1FAijw8jeQSqf3vWH3DOvDN/eyoDJNze8fdU+1+/FcbDfFKnVo5unOFHt8aU4l9P/h+GFrw+WfGbGn7IrRytxbpCLrnjtMKxH9NYy2ohfKJHSBxIu90uKzxm+92TI6I1j5h/zejb39siTpuwNp5IGnwfzO72T0ua2h6KTp5s+71/jE8cqqM71oKXPRV0bmjjXT9Xy5TuVMl9Oonn3iajbXasY8m59zDb+7qoFDfm0F9RHdYDQdcWQ3okDc2Zgw7TuGrfvCG/MT1hzMjXhSSS4veHA81PMDg8mRDwrMrnsBR2O8cqGOQMnQtN09g3YYGSqlQ8vVhMbLPhzt//CeIABg9mQssIW69Y5E+9iA+ZH2iYbE8SDo3pwrw4jIxzLnqL5H4+pxMQcO0Ger5HOJ+wozO0ZA+a2g4AL6ZB/NQKMtoL2owqY2pv4DaRPu3faVK4Rll6KhIMjzCFxMmRfInZ48HABw68WY0HKCoCTvuBj5OU5uBrGbAA+L3gswFHrMB/HeP1DAGOmAEzuBtATa5vC+oh4qIwdlpHX3IopnHL9+pQGr7+R5PeuVhFt62TePfJjrL0k9UQEheA4aPmf/2tvtN4t3Ln8IzpP2SQ6E/Xjc/K5dcB9CpuxCpKqKsFgsDYYDQHwvZO354V6n/VxGV4a+LLGu7sDvPQOHLU3IyqbEzLTEaYsEwToL8WOwg2tO92A0bOqsG6n02Nig9pvxlzDukNIb8+GrVfvBGJDoqvWAMU/Oji9oTpTCdxb3UPJ92l99/imv7wb6mlNN8mSLxf7NFAfYOwQqByWhTlxDO73BY1nw2H+DMJL0qcOP9hDmov1xXK43bYQINbF5SLhE+P+Qp292wZjx0OYT/xnLnCol7FVdj6MwY/MgjHFPjMApmHkXG/sl7hiv0wXoAfWNoX1tzqWw8vLIw3b6lp3xj+3s6+ta6/3oq725BMokJx/evU/u2AaSXlLBvTQfTu5cr5JEOUpESUiJura8j9Foj/fXf+In9//LBLN+ucp+cw6TPhtDajV+NRJE+6vx3w6k7bnBbMX/lWrjfvkjvvkGjPtAL7mXMhMf5hyX5in6wzxK0osXroCx+z4pqXQaQCxQV76d0/xuTE5nViwYdnYY1xQe68HkHGnqPIktU9Prm4j3uc320WiJ+KlximRbf6eybsIgIXYLj72BlTqDgc4vh6OHcd8yoKhc4j+KfwIflAcWDWMERVcrPGkM/i2NYeQY5b+d4gCriW2TpVlk/8uAXjbB/iPboPrc+yFYdDrBvZDfBX0z+blTt2tdgxzCO+XFmLynqE8e1QX680jq37CPu1PItFP3+Cf+90P34sub81qrGSDZH7ELrJqcyvlOzKtp5ZLMVJRNjTKRt+OSFnRpz7B46+K/pzy5RnyabURLBU94MROWy9IuJkteFxlAcfus9iH9nNzzjIffGMQYJAb+aScv+oJgzuiI2fS5pXm7mHFn4fy5/dgJw5OZw7/tjLmxXyOngW79zlGVQR5FOTw8wZsrxNOrorhvpw0+sIQbWHwiDD2qhsCq/fGVCM57oU7rsT7NOq7MKiRy2JM18lQL0w44ftJHMGpRwyOfl9B4Z01jNjXCdDxTHzGZQ/e4RFpbOzN8lf/eVBdzfx0pzyI2BVYdilTUPJZAXPQVc3Qm+H49FPNFEtsQ2Y3h6lx57zk8x9d0zz4Y4fEEk9O2+Nc4HQdw2WdtbHfVsIcsUEdXgerc04943C7D6WYQlQP68vnXO/36WN3+pf/LbPDPvaK4FNLjItqH0N+jFMmOZg3D6WVtZecyYgeKskvjX5HyY5K6eF/TPzLr3ZlMa9QHT9Z3HjfJ7l41g6/vRce+80/WQ73PwtPH6imvuVZMbvP5jc2gse3Fqdt/SzKqe3LNNOeFzs5C8698vCf0d6SuXaWs9/0Nu5vO6X277Ck2jHqzkTyL85ZiJ/8jE55MyGvbS/HRRcXC+KDp+5dGAjXXg2gqneB5yOI98lt/FA79llP6X1Sq9780Mt0x6woS92XgeZV41cOMgQIetMzs5sr13n2Vvz1Dn0236++sWEgFhccneOy3MjU78yZ5IRncw6M64qvpnKgLd5NJXTf7OLU47kZHJ51gF+9qcqbGaI7JwDypo8yKX/Ur3KM7uIN0zpD+tFVAXazUiu7z2m6zj12/MTjYh839uylMOKDkz9oBHa8FE9qATZ8Id3sgE9lxa+NDG6Vncp1vRKBTZmP4AmEAqFQIMBb/D/Y0SHXlHgYwB+LBOKfiZ8C3DJs1+PjTxQIQTOfA9qJfK14IS/MkQvYM2o6Hy7+HfThRdiOIDArwn6IbYp4Ql0wn8ioCZjDi8kvcSl8wj+BUHyDvQmTtoaB4rNCuX4CDez9+EXj71XIF3K5XELR2CKBmgYPYvwEYJEvCFPDf87n478O/xTEB3HEPpepPx/wB8Q32P9A3Z/JsBCAME0d/4cU/6gprI8Qw0l1/cFS19PR21VJRvSyomYeBs0odb68KRiF7AbPP9WD2/Z0jRby4qPzuQ0hMA0k35s0x0+1ibpZaw6EwqnJl3NDvKTOfUvy5TSTIpJPv6Hc+XJpkM4n86FDqE+m0ofUPkW/7ihDvrwW/JLxC+Sx9K6U1PjEzyuU2idJ/Qia2SDCT3HTz6SL8vk89CGdT2Ha2vJOZErtk2z58loI4lkxMlQqpJsan8La6EttuSS/RzMdRUFkRC/+qUr0BdcspPNJAUjtk8rVYzl7k+L6XGq8v5LP9/nxrxs+X9GSxAYo0Rdcs2j9PplK1idUDZ+o67FQ45DV2Oz2lmPSvyvJiF62rPtvjPcUgNQ+Bc56+Z/tn9T8yY9OM4f/siYjeumzvRXny8W0fp8Y9qnkE1XDJ1mOn9zey1AK+BNY/5c0V05+Oq06Xy6m9fvEL8tvZr5cuajxiZ9konT5cu+vdMiIXv4r+XIFILVP8aN2NC9frmTU+MS1TFW6fPmpL8LJiF767Wot840aQgXyESpWjyVMf7DU4z159U+LvjcgI3rJzUP5PZqQ2ieVy5dfvSR1PmLKn/L5Pt//fz5kRC+JXuj8E01I3z+p2PoasuTL/bxkWOrrExj0f1TlRFqejp/LZ54gfbR+nwK7j1Sp4yfq9TWoiQ2Vz/io+nf8cmT6UdL6sDLQ+n3ilhaqVH5PbewoqTudVUfkU19r4N9k2QKaQfly2pDeJ6cAlfJJ4Ogv3QfHkFc+YvWfA8mIXlC+nDak9slC/7RKjfc4xQVSXyQor3z5gH8ekBG93HihrPUspQXlI5SFGp9i2terv9cIHeRynR9HaPvPIGDI4Qo4NT/5zJ+ij9bvk8qtp/ZRfdiG2X8dr2VBM6y3Wwd+027ISzlMvXUqV/b6Rk2hAv2Tip3PlSVfHmNOXYe5RdEeKery4zTRXKnfVfNB+QjakP74aa6RauXLKdbXaAizDHmc/0zeLPrj32/lkfmw+wnlI2hCap/45kSJdFXxSaP3a6nz5f13ymG8B1Dxk+gvsi4pvahC/0RZH1bx8G5J6RPHuJR84ribtK3oLwdWkj4JY3Ol++AY8sqXP/jtNBnRiwrky39uw1FKNNfpS7dbBQ7uSh4/jfqxiHxxa+T2z4RPjJXW5Pi1aST5cvXnnz2jj5MXRT/eIWNamL2MWCpof1v5XM9FH5r3vvhWKbn37yjpfPpwvXsP0RHyxa2Rnb8RNRqo13enRrI+YfTfot9p5Lfr/yMjehBdIkbqbDX51OekD8akhy+Vkte970p3wuNDvnz1ayX9LNLx1kT8KaJnvpfap+qboUQQv3OMZitmy0yioLaxS7y4RSiOD/XCVANZ8uVaseTQMH7nDCJonRwifWr9x0+tn/ixE6U+3mgNyDK/PM+aOO7AfHpIBK2TDqRPwddbe36v9SNIy5XDTBj5oW43vtG15WsjuZ5QRXxKQT4pHGbkBKnzy60BYUyM1N8Pkny5iviExnuKJ/bNU5U6fmJm2kj9eST5chXxyW0skZNBKA7TbdNUqn8Ke3RL6nzEiZp8uYr4xGWp1J+yVZJ7ay6Thy8zxeMLhXxJI6zbCLAGG0vhq1qJG3zRKbzB/n7iJZvEK1ORG8Hv4U0Dm6z3CySbrNkytkmiEW+yzrY+2mTdBt+kMP7VZql9Wn2BXDdeRXwKcs8VtwjFYXr2ut3ElOBqKLFLSbFzBxu88YDdeLMH3PAmCBbhjRccCk5JCc6DLcEpwcF+rA1Y81YjPhhr1nL9sWcEHwYn/ImuMAG/Nwic8XuPwRdv1sBevNGB1XjjDKvwZgLsw5rgZDiBbTnFkbsW21ZKtBp2E7yVVYT/tkmQhD9jCHjhz+8PQXjjBnvwJp14s0vAfQfWlEA1du+tzslNUvvE0SJL9amIT0a/tfZ6y62fsEMX/v3iC5E+3BBhzRiYiDd28BBvhsAwvBkIj77GmnDYjD+zM/z81xdf/BWq9ucfX/zxhV/iH3988dV2ZgL2o7+uwFLs+f9ehb34y17AObwZB1vwZhksw5v5MA5vzsELvNkLV/FNlsAVbJP/JjC3f/XFH3+U+WHb/eNPtVD81/wMnbEn/vseMrHm60cwEH/ZMBiCNy8hBW8mwhi82Qf6eDNlQzepfSpdQK56ryI+ofye4hFqBRRkZHgmQ37njIygQijDms4OkIQ3ZuAUhDV+YOmJNRbghT9TA+KsMjKs2Pyo4oziDA6zGGsmCLWwH1kZQxj2/IJUiMVe7VkKRfgmTcAf31YABOBNIpjgmyyCUnyTsZCKvS4oBoyxTRZoCSdg2ypmcrDtFkfx2fiviQMN7IkFXhCPb9IS/PBNOoEZvq0kcMCbMijEN2kGydgzg9KKQqWedOP6hRcRfOwTu8I2Uhww9hgkUJ2gs9hN1AAr7UA6qUBqfELnnxCKRLKe2sc+8Us3bRRPRur8S69AqqP83HG9xG1efy2AmObOm9NukQsaa3xq/fXCEK2ZRvPlo/44jt1y7L4ywu/VEUaAn+Ga9OEajMSFYfgjdbWr16kRR2q1Uvn4szmryIRIbWo/k9hI7RNqVG7X+OQ+Xj7ryCMQVEwVxREBhU/cLcs2JgEk993YB9vFk0uGs7mpkYVrSrD93K+4JMOSfWpkZXqBABu3amrNaZvASIjU1vI0BlNDk7gB5tjLk7NWJpRh29GysrKyVROEGBZwgGM5vMLL0TzIeK8V5HveNoPhX7rjo0WNCUGhOZ1jMvSSsThkT7EAiuyzijmg4WVlxSlbaiZIdeaz7KOybLW0J/iGiN9eHWp8EgpVaqoLopWR0x4zBofCJ9a+oB9cAdqVn10BoJMZ1HaIRteqBcd3lUDaseLqdztMF404MP5JCO/E+3y108s7cwa8SmDcHwdZP03KmX6GATnr7fW3GWLbKZr2KKJnkov18Fl3BQcOT+h+dWn4kb5jBiYutvfulm//+WRH7DkOXQb7rHg0We9MNxbLwNf5pEHYnAHJbzrDwr3JczRCZi4E28+jLdo+69DL0r2zzSNn8furTY1P1vvTxC0CoQjwk1ZiqHzqEHZss6lDddlFI1B/Hh7V94zm7k5aMHYInL8FRXd0oMNY4M3yAeOrZXDqPhOs9OPg2lPQfPEAkq8mgu5+0Bss3lCEvgAcRgyP6t1HY3o1rJrG4c8Mx7rGIRMOvBnOfFIgfo73KBDqukLRurK4Fbftx7yNtQkzm32X13FsbL4g5owbWN4qgnbdWJA1LipoWP+Phnw1Po3/LkPcIhCKIM4tkAiofNoCnl88HlQavdkIQtoezDbO4y4+w4SHhzGDssuel8OhY8Dplg5eM8tg3zJtCNLPhgdjMJ8MwOlCJaT01NrdS3zQtWgsQNY0q+yERE7KWIhYxtS+g/Uw46Z4xZWGWewikohTlgGnjRsU3TI3GFMQlxAA8S5Luy8Erze7fMHi+UDslxTBjYcMWD0mIS417aNBXY1Prb9+BKI14/1vw/kIzlQup+e7SVyNzX2gcpcldiDEdsfGcV3XA+fGKZvOfPA+BtxueyH1lT8MGc+CzrohMKgXsAcfAKeqJCjdsdvGTLyhiJ4AQUexHT6MWTnSI9wRNO4MB+jZATsq0wisIvqndsuAOxfzaWaZTnfsVVqVb+dpnXnM4/oN3WQcM241JMw0hSkvGbBwOfbkwI/S9zU+Bb9DPiEURyP5cl5g7yLI/NsQ8n4Zy+aPuBNVfp4VMSuGOS2YXzZnr06qFjd4HCOsajI368poWDQtiZ/6Zo3FsVns3KvXuBnfxsGUDpkr0/AcHXdLNzZoHJ1bam3NGtjPwNmMW7TRQwCrj+gleyRrvVocjY3euGvbMMPu7ONWfmuff7KHZVaF77qMmNn7TH0rtcZhYk003f3zaO5Q3Xiw/HJiQLhVg+M9O5QvRyiQRvLlTMNh4dzAnCL+gQs97CFU90IvE60NnYpDpvc2NW374sXsvl4jR1XadxmaVv1mCcR1Op4r6PDoUETPKKsXW9IeP8qBVXfav/gMXzU332huFA86v6kyMoNzgwfPam9tPds1HphDz75Zw4eh3W2w56QdG1EapTuxyODNXVj6rMpOvWz685zgXsbXju85F89b8uTYgWlr0vosx/oy27NPDn18uWSNTwZr8YwiAqEYJjWSL+d9OOuDBdx8Zk0I6eXYTXWdE0fxGgB8UxZDkq8uOxeNjfJsiTv4g+x8LiQOwXqW4nCyPKApXuuBb/rRmWBN7JmgncvnYtvUKML7olg1oaT6uZpfTVSLGp8QCEXiMcqcCCh8apgxT/fa6BSTV8o3gPOsfjYGhvXOrkaePGXj4YInyFuYGp8yD/uLWwRCocjkU7Lr1HO3myjUzHKZP0SvfvFZ1pKhQ/TIikotSo1Px/5G+XKE4vDc50cEMvlUb/JRQ1BNoqV+8JOp8QnlyxGK5JBIta53t3uH8nsIxdFIvrxVUeNTMPIJoUBUrR6LrzcNyQ4EQkoay5e3Jmp8QiAUie/IRCKgzSd+YnyBZ8XtYrzEZixty2vV+GRrR+b/EQhFQpdPrNvJGgZXjhe7trkNELaUrup4NT4d+7tY3CIQimDl1nwioMunawv4kPrFNSh6fysXoGgL+etamhqfUL4coUgO0Zzfs3/pBJD6ywCAud84YPdP9SMeb2lqfGr96+ciWjN0++T9FDtu8vrFO7/8YjA+Ee/g0RjiBy2MpH9C9Y0QCoTmfLmgF17KJfXd+I6/uIknRqRessKbFqfGp4rqInGLQCgCmvPlmm07YrdeO909vzklfiDp83nitqWp8YlHMfccgZAXFWtpzUdwn6dgt6k7V8OAf8TFL51uDsebFqfGp7svC8UtAqFQaDp+6vsaG+bF/T6Zx+t7vUQAEHmRnuspanxC88sRiuQ2zedzbz91BLX+v3TNA40zt9YwYWBvegZkknwEypcjFAjd82E5hw1BqB6mhvVSzFht0JpIUzq7xidUPwKhSGi/XsPRwOFDj6Q5/OBHlVRahhqf3n5J5lcQCAVA//zyXKcP1x7mWtKkk8SnYh+iRSAUQWP1y1se+pLZNT7xOShhjlAcBadMiUAuPtFHjU+r2lAs14FAyInG6pe3Jmp8Gv8nypcjFIfHuObUC1M+anxC+XKEIlG1+hFofUKEIlG1+kZbr6B8OUJxDFExn7xuK35tbMR/l8OibCJQEZ9Y6sTauwiEIjB+TJZIURGfTrUfLW4RCEXA0SJnLKiIT/d/Q/lyhOKw/bAe9UgiaJ24kj6hfDlCkfSryZdH/6JvnN1qSRg5k1gHeMdOlC9HKA5Jfi/6D9FXf9HIn/+QAS38IbpCHAeuvUR+PyAQCkBy/omZfm0QnYwddY6MaKHagyX+GCZBauIWgVAEkvkRdNNLnwzoRS0XXwEbgVAMTpn01MOrj2DTT/QspFaPfkdTyQiBkD/seKlWGvxkWOs2ycWnFb/akxECIX/0dlWSEb2obb4qF3FRvhyhSCT5cpqJ3fRILj6hfDlCkUjqR9BM/s1ZcplYN+mifD4PAkGFvPJ7AZd16SrFUgf/VC0yQiDkj/dX8vk+d7oyXS4+xQYQ56EQCEXgkKVORvSSem+sXHzasg6N9xCKQ81fPuc/o76cI5dCXn22o3w5QnG4vU8mI3rx/Oa+XHxC+XKEIpFXvnz4u7dkRC8oX45QJPLKlx/8ZSgZ0Uu/XWi+EUJxyKt/Ov8/mhairkduHsrvIRTHlD/l831+4FdivU+6SfRC558QisPPS5OM6CXnt1VkRC8dPyfrNSEQCiA2VD7jI70/F5IRvaD6sAhFsuqIfOprXft7NxnRC8qXIxSJvPIR+783ICN6QflyhCKRS75cbVFJ/999M0rIu3Ry4wWqZ4lQHB1q6i3TSeL7TXN/8b4+XQ5X6Kr5ofoRCMWx/7olGdEI/9rXv/39zxc5cphx5FSO6hshFEeMOYOM6IQ1UiQS3SDv0ArKRyAUiVmxXM5/mr0SHSdDerH7CeUjEIqj/3ZyvOeV1ZlGMtbecSkgYzqIrPlaQP0TQpFI8uVzv/npFxq5vInW7V+/aEJ8DJQvRygSSb583Q/9B52jkVVkSwsDn/5Gfoz9beVzPRcCQYVkfcJbt4i2dWJwhPSJrSaf+pwIBBXVl0KJ4NZMuVw/SxMSn7LPxxMBAqEANAPJk6y3brXmhWcX1PjUZzs6fkIojjxrDSJQEZ+Cr6P8HkJxnPqOvJ5QRXxKQT4hFIgkX64iPqF8OUKRSPLlKuLTwKfkiSgEQgGc+JAvVwmfuEy5lKFFIChZfcGJCFTEpyD3XCJAIBQAR4vUqK5P/OQ4M+KL3izOhOobn1U8QZxoL9JpYv+Nq6h9QZL/8FgiYBXb1ylc4ZBtacIEdcvsNIeEkFK2aYKlVwzXJC5BPC1vwsGSQAChf8Joz4I08dPrI/HJ6DdUbxmhOEoXRBNBPZ8i9WeJJ+5UDmsTRdVxqffqIS6MNHoD9jR+I6eCd5+qXUBp3vtIImAbDatz4jXp4S4XFqhNmehfeOyZr2bajbMP4gWD5q5UB0jrsGrJmo63QWje54n7kpGnLMiX1EbiE8rvIRSJ6xdeRFBvvMceL/LGLRkgOkN9gdSQYeJ+R6DNBQudRnxisWv/0O9iORk96BZGRgQe3+3FbvuVALw94g8Q/m8FxGMSAWj0eooZFD5TB2D+/xzhrihC/Py6SHxC558QikSynlo9n9Q8Zl8uw7qnKbt6Yf2LxuhE4GmYaoXmYT8SOnips4RubWNK87Hxoimbd6pLoGagGZ/jaMHjRgfGGuOiaKQ6sJiYSUJ2LJcbmGuRrY09GJOcV4X5FB9SBOC+XI1VlsvnmSXnioVjHJ0OkOuKDQfnr8N88v2flabrcPwH1f+E4M2oW+qw/kczcBSNxO/WQ+ITqheGUCQN5cujzy/8tj/wXFaPea4JJgOW9nwc1lHXfcUTe2BV265+siJt9ayFXWcFwOQqS5bd+86xe6qceFN7suNeHN/fPlgTLA9Hdr2zEDtCMn3aW6vgRd+7g1NYUL4obsh1K15Ujm8bHRjQlq3Tx17ou6ZgJDHw2/9lHOw9jx2rDd2WiPm0vXqIeGgo7P6jeMB47telcOhnr+hB7zzwu/WQ+OQ+HlcegVAMU0VxRFDfJ1unZZc0/Po7jnrO0T61N2noSU3fKyHsh4fBUz+ZVXVNOPBoGnvEQIh8Usxb3J7Pc9gWB3rtNfi6dszITtlwfCtv4MlCvH868VxLbdhEhtWtIoeXxcKAixlFHW4XzmgD6fqd0x0F/A1bWJ2JA6yyX+YLp+BvRuyT4a+bNotHbswnVeKf224fAN7/uOo/CsLv1Ufik1DQyNgTgaCZnPZJRFDfp/Q8q//pZenBtOdC/zYDDJcs4VU8iYGhGyD7bAV0WgDV0wQwsh14dSuG9E74Be3ZYKuvAa/PgYluJPQdAQbTxam4cy+12TMiwP9VwIHBXGDvys6YvmaejSHsvfgZPjI7//lI8gQst/fJzHR8qEj0T9/sb78RfwKv02WxTw9+NYT1V7xOb8NGoR8j8ck6gjoBiEDIAyGX/D6v71NOKMz9eW0gD/PJoVs2tl9DyZNoON5RyO3QsTgiHh605cDIRWCM+eSO+eT/ygt8lqvjPiXrl4PluKWPDcVb3v9QWxPzyaEqaeEjddDaZey53AxAAOmzRzzUBgEvcvAjcoTm/O6R+IBp/jb8+OmHuLwLm3ChvH8oxB/tuikW+l0pin/TLRC/Ww+JT+O/yyACBEIBxF0jd896PsXsHg2Z3x8C/vJRAva4ublMD/7KXfHQdwPkD8opx7qRVcu5MKMdGL/IgPRZfGHu2c7g2j4GxkaAU5dIiPQuEWcRAPqP0WK/XgQOtxIn/LQX1M4GFd25r21hAwPaFOoPBdYEpkb7BcQzY+4cLcLbtZswn3S+cwaTXZewQ6jcLjswMaM2Lgbo8LM/xN27T4wP6yDxCdWPQCgS73/JHbGuT8J5yyNY7NOJfN+bm6zBc2PVdGvW8Xd7Aga/cXScfqfTiw6JLzfHJc98bvb412uQsOltEv90VcSJS86p63qa7f6lHRw42+nF8pWYB9E933tlv3+an/PLNe6QTcFum1y5NveevY7TXnZlwoDtQ8yGrPU8XpNBqJ6E3Qjt2/99l51n9FXHaJgkuty/DALsJs0bOGONACz1/+8uCwz+N+fjS9olPgW/Qz4hFEdD+fLoPD8BaAAvMCAvHiDgtj1XmJ8Xw3Yw18x4nORkP7nY0VxDKyCRGWgSC8JsezbEWxf6jVZTD/BnBZqYai+2r0y2nhyDHRX552mr5/kzA/P8gFvc2SzJD3ilviHAd8xTYyc5MHJDLE3JXwlheMRTcyg0FWj655lxsTcRmsgG0CiNysYOqUDbIckUe5N5lR+XOJP4ZIfy5QgFIvP8csb8PnmJeXvIWRUNUPnGObHMK4NJ3qUfiU8GaynzFQiEXJjUQL68YYJ6jtlwDjvCaQy26wij+TpyrCQu8QmBUCQe48yJQGqfAOLJS+Qbg5Mr1+smJD4tmYqPDBEIBSODT0qIxKdjf6N8OUJxBO3zIwIV8QnlyxGK5JCI3BFVxCe7dyi/h1AcDeXLWxkffELrayAUCN31WFh47iLAOFUTQKhGn7ESn27vMyMCBEIByJ4vl4l4azPQeLzo7rUh2cAtnEAxU6hlkPiEQCgS35FkfpkWn9Sqg4AxcTn2K669yQCurS/5eIsj8cnWjsz/IxCKhBafbFYIYO+vVnjY7QULCkeSk2RbHIlPx/4uJgIEQgGs3JpPBHT4pP7wHPDa3hNPtzv1qydAT2/x4y2PxCeUL0coElrze45XdYC1q4qNx+nbFwNsGIeXkaABiU8ov4dQJIfo9MnpxwoQ3HkvLrS38NdMgA4vqC4GbAE+9E+ovhFCgdCaLzfBfIK+v4pHlCvuOWI+Dabbp4pq8TWJCIRCoDVfnlaF9UnmTw5jYd77G9jt27E0ZcwlPvFQORaEAqlYS2M+QnPFKey2+GV/e99lU/CjqHGraNrdJT7dfSmuNoFAKBY6fIKlRvjq0P6rd22/ht+17FOJNzQg8QnNL0coEt/edJ7P5XpY40LxSu6cMdEScnaX0DUa+5CPQPlyhAKheT4sw4rQVdP3lGH06GzarjGU+ITqRyAUCd3Xa/Bq6vsJhQLqhQVaBIlPE78k8ysIhAJQtfU+i33IBaYQCAVwgt755fJC4hOfI9e6FQhEHQqmkOXvVMSnVXM/LnaJQMgLYc3agiri0/g/Ub4coTg8RsleL0wJkfiE8uUIRdJPxepHoPUJEYpE1eobbb2C8uUIxTFExXxKNWy8sjoCQSeHRdlEoCI+sdRb88dAtHaMH1sQwa2ZRNs6sanx6VT70USAQCgAjiZ5/vPWujD11suAL0mf7v+G8uUIxWFbsx71RtHFq2fp48KjW2REBzN3/utFfAyUL0coEkm+fGtbXRoZ9mRj9+VkTAfLx5KXnezYifLlCMUhye/RzLVuTSzB1kKsvUR+PyAQCkBy/olmZtT0gzRjEqRGRgiE/JFcT0gzy0ShZEQvaqZyXGUUgaiHU2YMGdHLMlEpGdFLv6OpZIRAyB9NC7zAA/3Iy6cVv9qTEQIhf/Sq6Co5VBd5+YTy5QhFIsmX04y8fEL5coQikdSPoBl5+TTpInliF4FQAPLL78nHJ/9U8eo4CIRC2PeVfL7P5eVTboB4NQ8EQiGUlauTEb3Iy6f52+QzfkUgqFDzl8/5T3n51Gc7ykcgFIfbe/nU15KXTyhfjlAkKF+OQLQcqpYv73eUriXkEYimUbX+KRbl9xAKZMqf8pk/Ki+fEr3Q+SeE4vDzomlF23rIy6eOn5P1mhAIBRAbKp/x0Wk5Xf+E6sMiFMmqI3Kor8WoZNmJkvPJla9pBeXLEYpELvmI0m0RM/6w+ewteZdOUL4coUjkki/3e/bdve83i/qTd+nkxgtUzxKhODrU1FumlYKfRV+LurLJe3QS5ofqRyAUx/7rlmREKznfiz6TS6F+p3JU30h5Ecak+SkxaYGfXPw+xpxcdd2Czk9qWtTrR5tA8g4dFJlyiY+B8hHKjPqhN1UXlJejvcli/s3HrJg8/9nnDp2f9OiuC09o3P6rRyMciI9h9xPKRygv8fo/TH96RknpOfbWZTPyjTab/tvJ8d7FP3qMJTdMB2Of9iQjOnhZ9R2qX94KiO7W3YLDVFIYnNVnP7mIsSRffuuiptJ+0iYR5EjW+0T5ciUmuts0ZZ5eafvpPkny5a17/SePGp/2t5XP9VyI5hDdbZh8LgdvHrs/3SdVW5+QrSaf+pyI5qD6PlVfIufVqYhP2efjiQChhKi+T5qBZKJZRXxC9SOUGdX3Kc9agwhUxKfg6yi/p7yovk+nviOvJ1QRn1KQT0qM6vv0IV+uGj6hfLkyo/o+fciXq4ZPA5+aEAFCCVF9n06oWL6cyxQSAUIJUX2fVl9wIgIV8SnIPZcIEEqI6vvE0SI1UhGfjH5D6xMqL6rvU+kC8rIkFfEJ5feUGdX3yfULcmK2iviEzj8pM6rvk2Q9NRXxCdULU2ZU3ydVy5e7j88jAoQSovo+TRXFEYGK+CQU8IgAoYSovk857ZOIQEV8so5IIwKEEqL6Pgm55Pe5ivg0/rsMIkAoIarvU9y1QCJQEZ9Q/QhlpnGfeNgeKCBvayPAHiQj7P88nvgptRA0dgmpLMP/FvDJ+19yR2zQJ54QeNJc80q+cR6/xSf8CMW/ntvA+xMj8Sn4HfJJeWncJ809h9pZcTVuH4qIq/O37jCAdyAY39P5ke1cfTVzH7h2Ji/aI1h8qOE1ivjuE4vIsGlawKem8+WmPt777+5ObtLz4h3z8CZmko34buNwdYLwJjdllfhu49hsxV6wx3tOIysPSnyyQ/lyJaaJ/snsy2kMnjBx+xiyJiSJcyr4vBcf5kePm5kEuWcGMuvsjQkFdfSqy92L0jsi9knT81PWrWg6Xy7I2r7eNOLygMa6B5zkR4vxhlVOTghsFL+bKXhj0fY0gBlT/BA1arEAlSUAttVp126Tj1Eg8clgbRkRIJSQJo6f1G69xm8v7cBuuWHih8inh9wSnwYRLLujqTXQVvwQaOM36mKzPtxIwBXDd1mrV46YI9Itsrf7rBnkG4lukHebQz9Rk9cTVl6/C4Ju2y2A92HpNXbdfxa8xrHFuHTstu43BU/8mSGGHC9KRoLCg59vDMCDrcvAdEciFvBr15ESP4+HT4Ti7N+NxwBdvYm2ASQ+IZSZJnyKmdkbu+VstgOwL7ntHg1hVkv35hdNHg6WM8U+cY/pOuT4iMXRdl4wsAgyhh9I0PTx0bSsdsncMLx01VATyBhU3m6kLy92gC8veZEJWF0w41WstLHhCYL2GQ+c3+jVPLtv5RcPFt0p19RqLpo5I0bjr9aGC1cb8snpywEAbX63yLUesIYVuDhn4BCLYufwA2woHlTwuCOmY+7B89dsQ2Of24LPgViTVUFQ7ur1YBLmi+NBm2pbBw3fIL0CKHL3cV67l+yKtE75fr8fD7aOB73tB3Ih6aDeEvDfn1m9L/Wu77yJwwFG6zivNgWTiw8T4231IGb2nEa7PYlPS6bidiKUkyZ8Cnv0yCc959pPKRCtezuv/RpIf1CkN7zo7EQYTfpkt3H5FvFTwW1l6dzgqBOJLo81e+prZ/w4fun9kwcO6PeBoF9XrO59pJw95zk4fL4G8ykwdYRXZFWyIOdv9/BpRsSrqUnfpXdPJHrWY1rb5jJN/D+MjtePNtg//dIxaeHP/S0iUjNeuZt2n+UeUdA9pGB2OZT8eiNz1Eg2t8M5kztvQi2ehycfH645YVM7ePydj0f3icA4ZmO8cbpDzmuLQ9M1irq0D3K9QCYLgmxY457gicWtx6Di5p7opIEhnTfP8z873X1R5MXTWSkv1NVPr7JovxBih91Pi395FGK698G67YaR+HTsb5QvV16a6p+OdrcvLrY+kgKaBZoh3abA4s8yhTGwbKvEpx233ty0xiPTtruXnlhbMng/Oxom99JinYmAwovJkNOFA0cfA0w7zYmYAdxuHphPRbkJnHlVSyHpbAjsbd/Y8rbpz46LRD9d+vbnZnPkT9EvX2Ltu3G/PGl4vLc2a7IL10rX2nrZA26Hkdj3SIHQ+aQPsG4ZgkvbItYdW5g6B9SezhkYA6DxMAJCL5rA6uXc6E1WMHI+mJgw+3Uxg6m9gTebzFWsjWOsFoVjATbeS5rpCAN6Os97uBjmDMUGxGNOgeNZB2ZcvL/uCYCH2DhvcTeA167EKxtA4hPKlyszTfn0ag52y8THe0mL9zxdBOxDV05bwOkPPh3rkjx9J34cnT0sNS1WnWn7XtcJVr3W1njtBslVDrC7OwtOzgNwPaPWbg4wO+E+OYLn3nntV0Ll1QDMN7L8ECW7X4W6/v11r9GOzcZs7R97zLDWP/rszIbHewvZHICcp6b58dqcE/jBYkL67WlrQP1CZwif7s/b2pV9fL8wZsy25X7YPxnmk+XVfLg7jMV/uSUsZTdww/cMmob5ZAfsWR7iLRpPfOyx8HIP7OAK8yn5qjkcmpFrFq8NL4dgr385GfJmFoLj4+KX6wF69QPQw3x6ekj8yoaQ+GT3DuX3lJcmfNKqmoHfvp8IpaNCuA9XgSk36tEkGL8WKi8QaSajwQyNaUd8ARwuLgXIdwL/aaOguitb8+FAqNzlD7bLufBMB2DoUK53V2C/yYQJuzRcesentS+HpFsO4KPb2CJku8/68Vw2fTWQvNscbtSsEz2zwXxEwJfixJ3OLcyWMvZ67Muj/LlF7txw0KwKgvM9HMF+rU0x9m/1etWc+wLQmLEKQm8Vgd4IBhiuD88G6LdeGD7NDzoEA2PwefEWVxmrq2tO/hvb89feh9KzZlB9Mhb45jBjH4Ba12oou+Bn9rIElmF901jsP3dd6fsntL6GMtO4T4LUP08W8TjGX+nGW9/0MW4/J2yhjd+pIWqDR4Xd/rUcewLP4cWXUeD/7q9VJpxjP652O7jEPc3gNceuKjHgwlbNg9uHax6+VAZVJ4os3xbD4lsrV/54SNtne2XEzPKl7/urL/3HWqvDj4XE76JEnC8PXVZC3m0OTefLNZeIUvDcZeyTOwaDouJ76MbA4o3OzlVb1EO2L9Zst3GCcH6f/W5L2U7rFll+PtG/sCqYpfNPufbajf68Myf2r7biPO8RMuXiweie3WKSrrhiHZ1g6TL8ZELJX9OL1KZ3UU/bWG0WOnPYgtUT4t/MCIPCVynaFf8LCtl0zqRtT3MY3zYk7PimwLBHXRtdJ03i0+19n7zkCII2GveJsXJk3ziB5sGRQ03itxw7sHBFWedTSw4E+s8/lGhjtBJ7Aq+g74p5ArX9c+xcNAM36PYNzHNd4JGsuSg42ctussVtI9/YBykJwl3HStyx7/fAHV0NIwYV+RgVmyw7rtNhSNrB+5mmD3aQ078paYHzuZOanF9u4X7aW7y4UsIY/WpO/qQt5pC/IyVzUce0SCOfwNXLPGFR19dPnw+fYOQWdq23Z+qOQTEu92/7nQtOheMvX49pE5LVc1Dm291JHeab29tdw8Z4XPf12GCY19luhbFjh6lFcGqZFUSOW64Hhcf3JULqjv2m84x0wm689FgdHAVBY1Y7DnqbXLbWu9GPKvEJocw0Md6rDbk3NnK4Iz4JQ5x/qo3wjaEWcWLmw0Sdj55ETQv45DuSzC83fP7pAx/eYO3nBk3FbuwriDu1yazGb6Lqzcb6GOqfk+espPunkPhka2dOBAglRAafmk3ZFfGZmObQAj5JkMYnaiqOjned4ktxBnr3o2DXRcOJU7o0I/Hp2N9YV49QUuTgEzd79e3mLgnRAj6t3ErOVmq+Txzj9AMFVB+BbZXuYU/795EYiU8oX67MyMEnHgP4jUzna5QW8EnV6keg/J4yI4/x3ifQAj4dUjGfUL0wZUb1fVK1eiwV1dJf7oKQN6rvU9P58laBxCeelKlRhCJQfZ8q1n5yPkIZkPh092VjJ8ARikX1fZKgIj6h+eXKjOr75NtbhvO5ysuHfATKlysxqu+TyuXLUf0IJUb1fTokIndEFfFp4peNTXhEKBbV90nV8uXFPrFEgFBCVN+nEyqWL+dzPkzaRSgbqu9TwRRTIlARn1bNTSYChBKi+j4J+eQJUBXxafyfKF+uvKi+Tx6jyOuFVMQnlC9XZlTfp35ofUKE3FB9n1QtX771CsqXKy+YT3K5vLSZtIBPQz741JoTYxKfUg3J9eoRSkh0t2l1S/0rFz6f7tNhUTYR3HpFtK2T8BqfWOqtuZtVdeK7X548YLWS8lhv7KZGixBLg/FjCyK4+OtCPXLDrY/dM37wIj7GqfajiQChhMTM+eXIt/eUlutv/Mg32mw4muQwr9tOcqOtkW+/uUyedrr/G8qXKy9C0zwTJabQUZqFAxvFtmY96nyl/qRNUJlURo7LUb4coUgk+XIVYcdOlC9HKA5Jfk9FWHtJtb4fEK0LyfknFcEkqNE65wgErUiuJ1QR1Ew5ZIRAyB+nzBgyUg36HSXXA0YgFICmxSenCJWKFb/akxECIX/0qirJSDWYiPLlCAWC58vZbJYmFzhsFovNJxoBMNgsNkvAEzdCHlPcCPGGycMbTSZPgD2kyQCy4eMNB7i1Gi5wsW1Jtkxsi9xkzZaJTVJvWbzJulvGNyluyDeLbaTulpkrUP1yhAKZKjJes3z5MP3dnHPLhw1bHs7yxpul2luWD1s+zCr+Lda0SfW7jzU98xzmYM3D/NBe2POXxcedwZoU7c6jsGY+a88IrBnC8cBepX+O7443j/nV2Lb0FzBO4Zucp3kY32SkWkesGZGduwNrxjk5nsaaXv6FD7Gmd25qT+xlK9SsxmFNX/bKNljTgeMyDWva8ffim7zGX4i/2RxOBL7J86xDeLNSfSj26rYZ8SnLh7X95fMQ8pMhEPLHar+F9ZZJk7Ys5YfjTRDHB2+yWQO2TNoyKVTdDWs6BESvwhrvNL9FWDPFItEVa85pmAzBGje2Zb8tk+YP4ESdwBoffiT2qvlLBCWTsI0cFOjg28riHMAbe+ZurJkUonUXe9mJwpjJWLPePzYCa1xzzaZgTf+YAG+smawVuh7byGpG9mGsSecWTMUaD0EFvmVfwTx8WyuJN+vJsMUbY7Ye9rJJyRrXsGbfSoqFqBAIBAKBQCAQCAQCgUAgaAbg/wEYxia1WNvM/QAAAABJRU5ErkJggg==;" vertex="1" parent="WIyWlLk6GJQsqaUBKTNV-1">
          <mxGeometry y="-8" width="847" height="592" as="geometry" />
        </mxCell>
      </root>
    </mxGraphModel>
  </diagram>
</mxfile>
